<svg xmlns="http://www.w3.org/2000/svg" width="128" height="48" viewBox="0 0 128 48">
    <g fill="none" fill-rule="evenodd">
        <g>
            <g>
                <g>
                    <g fill="#5E2750">
                        <path d="M2.463 10.82L9.221 10.82 9.221 8.54 2.463 8.54 2.463 2.28 10.348 2.28 10.348 0 0 0 0 19.072 2.463 19.072 2.463 10.82M18.088 7.205c2.696 0 4.808 2.145 4.808 4.886 0 2.827-2.112 5.042-4.808 5.042-2.695 0-4.806-2.215-4.806-5.042 0-2.74 2.111-4.886 4.806-4.886zm0 12.18c4.092 0 7.297-3.205 7.297-7.294 0-4.018-3.205-7.166-7.297-7.166-4.09 0-7.295 3.148-7.295 7.166 0 4.09 3.206 7.295 7.295 7.295zM42.538 7.073c1.517 0 3.168.897 3.397 3.38h-7.532c.475-2.096 2.031-3.38 4.135-3.38zm.446 12.313c3.057 0 5.018-1.846 5.099-1.925l.188-.181-1.161-1.944-.297.294c-.015.015-1.54 1.503-3.777 1.503-2.245 0-4.543-1.414-4.765-4.559h10.07l.026-.298c.001-.026.053-.62.053-.945 0-3.19-1.802-6.406-5.83-6.406-4.016 0-6.823 2.98-6.823 7.244 0 4.182 3.035 7.217 7.217 7.217zM55.192 17.133c-2.28 0-3.676-1.477-3.689-1.493l-.267-.287-1.365 1.808.176.201c.073.083 1.813 2.024 5.117 2.024 2.803 0 4.835-1.69 4.835-4.02 0-2.617-2.378-3.546-4.291-4.291-1.506-.59-2.809-1.096-2.809-2.18 0-1.593 1.755-1.717 2.293-1.717 1.993 0 3.051 1.091 3.062 1.102l.297.318 1.158-1.943-.16-.18c-.055-.062-1.414-1.55-4.304-1.55-2.846 0-4.834 1.633-4.834 3.97 0 2.584 2.375 3.526 4.285 4.28 1.51.6 2.814 1.114 2.814 2.19 0 1.305-1.25 1.768-2.318 1.768M77.5 7.073c1.518 0 3.168.897 3.398 3.38h-7.532c.475-2.096 2.03-3.38 4.135-3.38zm.448 12.313c3.056 0 5.016-1.846 5.098-1.925l.19-.181-1.162-1.944-.298.294c-.015.015-1.54 1.503-3.777 1.503-2.245 0-4.543-1.414-4.766-4.559h10.07l.026-.298c.002-.026.052-.62.052-.945 0-3.19-1.801-6.406-5.827-6.406-4.019 0-6.824 2.98-6.824 7.244 0 4.182 3.035 7.217 7.218 7.217zM99.558 17.133c-2.28 0-3.675-1.477-3.69-1.493l-.267-.287-1.365 1.808.176.201c.071.083 1.811 2.024 5.118 2.024 2.8 0 4.834-1.69 4.834-4.02 0-2.617-2.379-3.546-4.29-4.291-1.508-.59-2.809-1.096-2.809-2.18 0-1.593 1.754-1.717 2.293-1.717 1.993 0 3.051 1.091 3.06 1.102l.297.318 1.158-1.943-.158-.18c-.057-.062-1.415-1.55-4.306-1.55-2.845 0-4.833 1.633-4.833 3.97 0 2.584 2.375 3.526 4.286 4.28 1.508.6 2.812 1.114 2.812 2.19 0 1.305-1.248 1.768-2.316 1.768M69.137 16.789l-.41.09c-.002 0-.212.044-.533.044-.982 0-2.631-.411-2.631-3.156V7.545h3.3V5.397h-3.3V1.599h-2.41v3.798h-1.757v2.148h1.73v6.406c0 4.716 3.435 5.225 4.91 5.225.498 0 .807-.056.82-.057l.266-.048s.463-.088.728-.175c.195-.065.446-.163.446-.163l-1.16-1.944M93.918 5.71s-.052-.025-.19-.1c-.305-.162-.982-.36-.982-.36l-.238-.055c-.015-.003-.382-.086-.78-.086-1.598 0-2.962.837-3.84 2.3v-2.17h-2.41v13.833h2.438V13.19c0-.893.118-1.722.353-2.473.58-1.957 1.926-3.172 3.511-3.172.307 0 .598.047.6.047l.381.057 1.157-1.939M35.845 5.713l-.189-.1c-.304-.164-.982-.36-.982-.36l-.239-.056c-.015-.003-.381-.086-.78-.086-1.597 0-2.96.837-3.838 2.298V5.242h-2.41v13.831h2.437v-5.88c0-.893.118-1.724.352-2.474.582-1.957 1.926-3.172 3.511-3.172.307 0 .598.047.6.047l.382.057 1.156-1.938M0 25.052L7.267 25.052 7.267 26.27 1.355 26.27 1.355 31.455 6.422 31.455 6.422 32.673 1.355 32.673 1.355 38.861 0 38.861 0 25.052M9.187 38.86h1.335v-9.88H9.187v9.88zm-.04-12.139h1.396v-1.67H9.148v1.67zM13.286 28.98h1.316v1.474c0 .432-.04.785-.04.785h.04c.353-.903 1.61-2.494 3.947-2.494 2.436 0 3.3 1.394 3.3 3.83v6.286h-1.336v-5.932c0-1.553-.235-2.927-2.14-2.927-1.69 0-3.143 1.159-3.594 2.789-.119.413-.158.865-.158 1.336v4.734h-1.335V28.98M27.342 37.957c1.886 0 3.025-1.965 3.025-3.674v-.432h-.57c-1.552 0-4.655.06-4.655 2.24 0 .923.727 1.866 2.2 1.866zm2.475-5.205h.55v-.255c0-1.906-1.042-2.554-2.455-2.554-1.63 0-2.79.943-2.79.943l-.629-1.021s1.297-1.12 3.516-1.12c2.377 0 3.694 1.316 3.694 3.79v6.326h-1.277v-1.082c0-.49.04-.824.04-.824h-.04s-.826 2.141-3.3 2.141c-1.65 0-3.359-.962-3.359-2.926 0-3.34 4.34-3.418 6.05-3.418zM34.399 28.98h1.315v1.474c0 .432-.04.785-.04.785h.04c.354-.903 1.61-2.494 3.948-2.494 2.436 0 3.3 1.394 3.3 3.83v6.286h-1.336v-5.932c0-1.553-.235-2.927-2.14-2.927-1.69 0-3.143 1.159-3.595 2.789-.118.413-.157.865-.157 1.336v4.734h-1.335V28.98M50.232 28.745c2.416 0 3.614 1.414 3.614 1.414l-.687 1.002s-1.1-1.199-2.888-1.199c-2.161 0-3.85 1.612-3.85 3.968 0 2.318 1.709 3.968 3.89 3.968 2.003 0 3.162-1.395 3.162-1.395l.609 1.042s-1.336 1.551-3.85 1.551c-2.927 0-5.186-2.101-5.186-5.166 0-3.044 2.279-5.185 5.186-5.185M55.9 38.86h1.335v-9.88H55.9v9.88zm-.04-12.139h1.394v-1.67H55.86v1.67zM62.787 37.957c1.885 0 3.024-1.965 3.024-3.674v-.432h-.57c-1.551 0-4.655.06-4.655 2.24 0 .923.727 1.866 2.2 1.866zm2.475-5.205h.55v-.255c0-1.906-1.042-2.554-2.456-2.554-1.63 0-2.79.943-2.79.943l-.628-1.021s1.297-1.12 3.515-1.12c2.378 0 3.694 1.316 3.694 3.79v6.326H65.87v-1.082c0-.49.04-.824.04-.824h-.04s-.825 2.141-3.3 2.141c-1.65 0-3.359-.962-3.359-2.926 0-3.34 4.342-3.418 6.05-3.418zM69.777 25.052h1.335v11.177c0 1.296.59 1.492 1.1 1.492.177 0 .333-.02.333-.02v1.198s-.234.04-.49.04c-.825 0-2.278-.255-2.278-2.416V25.052" transform="translate(-160 -120) translate(0 96) translate(160.727 24) translate(0 8.616)"/>
                    </g>
                    <g fill="#007C89">
                        <path d="M4.72 5.088c-.397-.229-.827-.344-1.279-.344-.958 0-2.008.506-3.122 1.508L0 6.54l.422-.08c1.325-.256 2.32-.05 3.147.655 1.237 1.05 2.14 3.46 2.6 6.97.166 1.276.202 2.369.221 2.957l.004.134c.001.094.007.16.01.229l.006.086c.005.082.07.143.152.143.079 0 .143-.057.154-.137.001-.066.014-.209.027-.378l.032-.45c.026-.331.044-.729.065-1.147l.012-.219c.104-2.042.26-8.824-2.132-10.214M9.547 10.764c.07 0 .13-.047.148-.122 1.227-4.906 2.747-8.047 4.17-8.613.637-.253 1.121-.212 1.704.141l.382.232-.215-.392C15.39 1.38 14.224 0 13.014 0c-.336 0-.65.104-.94.31-1.235.883-2.168 4.015-2.556 8.597l-.03.363c-.015.15-.029.305-.042.501-.019.26-.046.63-.05.827-.003.044.011.086.04.12.029.03.07.046.11.046M18.988 10.646c-.97-1.117-2.059-2.159-3.438-2.2-2.654-.084-4.74 2.693-6.223 8.241-1.308 4.902-1.79 9.35-1.905 10.597-.028.26-.043.505-.057.704l-.014.177c-.004.043.009.085.035.117.029.032.07.05.112.05.07 0 .133-.048.153-.124.036-.167.087-.444.134-.71l.036-.198c.722-4.034 1.888-8.056 3.202-11.035 1.618-3.686 3.81-5.634 6.337-5.634.488 0 .994.07 1.506.21l.38.102-.258-.297" transform="translate(-160 -120) translate(0 96) translate(160.727 24) translate(106.427)"/>
                    </g>
                </g>
            </g>
        </g>
    </g>
</svg>
