<svg xmlns="http://www.w3.org/2000/svg" width="16" height="16" viewBox="0 0 16 16">
    <g fill="none" fill-rule="evenodd">
        <g>
            <g>
                <g>
                    <path d="M0 8L0 0 16 0 16 8 16 16 0 16 0 8z" transform="translate(-268 -1305) translate(20 1257) translate(248 48)"/>
                    <path fill="#007C89" d="M7.818 12.326c-.133 0-.26-.054-.354-.147L.147 4.87c-.195-.196-.196-.513 0-.708.195-.196.512-.196.707 0l6.964 6.957 6.98-6.958c.187-.203.504-.215.707-.027.202.187.215.504.027.706-.008.01-.018.02-.03.03l-7.331 7.31c-.093.093-.22.147-.353.147" transform="translate(-268 -1305) translate(20 1257) translate(248 48)"/>
                </g>
            </g>
        </g>
    </g>
</svg>
