<svg xmlns="http://www.w3.org/2000/svg" xmlns:xlink="http://www.w3.org/1999/xlink" width="32" height="32" viewBox="0 0 32 32">
    <defs>
        <path id="8lkc1wr5ua" d="M0 0.012L7.519 0.012 7.519 25.982 0 25.982z"/>
        <path id="t3l50fajjc" d="M0.518 0.001L15.465 0.001 15.465 30 0.518 30z"/>
    </defs>
    <g fill="none" fill-rule="evenodd">
        <g>
            <g>
                <path d="M0 16L0 0 32 0 32 16 32 32 0 32z" transform="translate(-268 -24) translate(268 24)"/>
                <g>
                    <g transform="translate(-268 -24) translate(268 24) translate(1 1) translate(0 2)">
                        <mask id="fdbviona8b" fill="#fff">
                            <use xlink:href="#8lkc1wr5ua"/>
                        </mask>
                        <path fill="#D32027" d="M0 13c0 5.553 3.026 10.39 7.51 12.982L7.52 2.884V.012C3.029 2.604-.001 7.443-.001 13" mask="url(#fdbviona8b)"/>
                    </g>
                    <g transform="translate(-268 -24) translate(268 24) translate(1 1) translate(7)">
                        <mask id="hdajrzkaad" fill="#fff">
                            <use xlink:href="#t3l50fajjc"/>
                        </mask>
                        <path fill="#FFF" d="M10.35 9.665v.004l.013-.007c-.095 1.164-.955 3.356-.516 3.613.037.02.081.021.13.012.362-.078 1.007-.817 1.612-1.558l.001.012.011-.014c0 1.218.756.984 1.775.718.124-.031.25-.065.381-.095l.013-.002c-.364.548-.545 1.2-.518 1.857.075.336.51.313.72.517-1.406 1.408-3.845 2.452-2.685 3.612h-.014c.001 0 .001.003.003.003l-3.12-.29c.082 1.023.065 2.055-.05 3.075h-.024v.003l-.095-.003h-.114c-.115-1.021-.134-2.052-.058-3.078l-3.12.29h.001-.013c1.161-1.16-1.276-2.204-2.685-3.612.211-.204.647-.18.72-.516.028-.659-.152-1.31-.515-1.858l.013.002s0-.002-.002-.002c.6.14 1.138.325 1.53.308.388-.018.627-.244.627-.929l.011.014.001-.014c.608.743 1.256 1.487 1.616 1.56.047.007.09.006.126-.012.44-.257-.42-2.449-.514-3.613l.012.006v-.005c.41.188 1.177.586 1.228.614.015-.028.741-1.45 1.13-2.155v.002l.005.01.007-.013c.39.71 1.121 2.14 1.13 2.157.056-.029.82-.427 1.227-.614M.518 2.014v25.975C2.722 29.26 5.272 30 8 30c2.722 0 5.266-.735 7.466-2.002V2.003C13.265.735 10.721 0 8 0 5.272 0 2.722.74.52 2.013" mask="url(#hdajrzkaad)"/>
                    </g>
                    <path fill="#D32027" d="M22.475 2.008v25.983C26.968 25.401 30 20.56 30 15.001c0-5.56-3.03-10.402-7.524-12.993M14.986 8.134c-.394.718-1.125 2.147-1.125 2.147l-.01-.004c-.051-.028-.819-.427-1.228-.615l.001.006c.095 1.164.959 3.355.513 3.608-.039.02-.086.022-.137.011-.361-.073-1.009-.817-1.617-1.559l-.001.012c-.003.68-.247.901-.639.916-.391.017-.929-.168-1.528-.309l.001.003c.363.55.542 1.198.515 1.855-.077.336-.512.314-.72.516 1.407 1.406 3.844 2.451 2.685 3.612l-.001.001 3.12-.29h.013c-.077 1.025-.058 2.056.058 3.078h.22c.115-1.02.132-2.05.05-3.076v-.003l3.117.29.015.001c-1.16-1.16 1.278-2.205 2.684-3.613-.211-.202-.645-.18-.719-.516-.028-.658.153-1.308.517-1.858l-.013.003c-.13.03-.257.063-.38.096-1.02.265-1.777.5-1.776-.718-.004.004-.007.01-.011.012-.61.747-1.253 1.486-1.613 1.547-.049.01-.093.007-.13-.01-.439-.259.421-2.45.516-3.615l-.013.006c-.427.196-1.225.613-1.225.613l-.002-.002c-.009-.018-.741-1.449-1.13-2.158l-.007.013" transform="translate(-268 -24) translate(268 24) translate(1 1)"/>
                </g>
            </g>
        </g>
    </g>
</svg>
