<svg xmlns="http://www.w3.org/2000/svg" xmlns:xlink="http://www.w3.org/1999/xlink" width="32" height="32" viewBox="0 0 32 32">
    <defs>
        <path id="pdahi00u3a" d="M.164 15.347c0 8.285 6.716 15.001 14.999 15.001 8.285 0 15-6.716 15-15.001 0-8.283-6.715-14.999-15-14.999C6.88.348.164 7.064.164 15.347z"/>
        <path id="51vmhq9j9c" d="M.164 15.347c0 8.285 6.716 15.001 14.999 15.001 8.285 0 15-6.716 15-15.001 0-8.283-6.715-14.999-15-14.999C6.88.348.164 7.064.164 15.347"/>
        <path id="7fjpemxb2e" d="M.164 15.347c0 8.285 6.716 15.001 14.999 15.001 8.285 0 15-6.716 15-15.001 0-8.283-6.715-14.999-15-14.999C6.88.348.164 7.064.164 15.347z"/>
        <path id="is5lxgew3g" d="M.164 15.347c0 8.285 6.716 15.001 14.999 15.001 8.285 0 15-6.716 15-15.001 0-8.283-6.715-14.999-15-14.999C6.88.348.164 7.064.164 15.347"/>
        <path id="j99csj3c2i" d="M.164 15.347c0 8.285 6.716 15.001 14.999 15.001 8.285 0 15-6.716 15-15.001 0-8.283-6.715-14.999-15-14.999C6.88.348.164 7.064.164 15.347z"/>
        <path id="m5hfiru1ak" d="M.164 15.347c0 8.285 6.716 15.001 14.999 15.001 8.285 0 15-6.716 15-15.001 0-8.283-6.715-14.999-15-14.999C6.88.348.164 7.064.164 15.347z"/>
        <path id="rukxs57jgm" d="M.164 15.347c0 8.285 6.716 15.001 14.999 15.001 8.285 0 15-6.716 15-15.001 0-8.283-6.715-14.999-15-14.999C6.88.348.164 7.064.164 15.347"/>
        <path id="gbf5yjltno" d="M.164 15.347c0 8.285 6.716 15.001 14.999 15.001 8.285 0 15-6.716 15-15.001 0-8.283-6.715-14.999-15-14.999C6.88.348.164 7.064.164 15.347z"/>
        <path id="t4bbwjj9kq" d="M.164 15.347c0 8.285 6.716 15.001 14.999 15.001 8.285 0 15-6.716 15-15.001 0-8.283-6.715-14.999-15-14.999C6.88.348.164 7.064.164 15.347"/>
        <path id="ugo5uuzj0s" d="M.164 15.347c0 8.285 6.716 15.001 14.999 15.001 8.285 0 15-6.716 15-15.001 0-8.283-6.715-14.999-15-14.999C6.88.348.164 7.064.164 15.347z"/>
        <path id="3jju6we30u" d="M.164 15.347c0 8.285 6.716 15.001 14.999 15.001 8.285 0 15-6.716 15-15.001 0-8.283-6.715-14.999-15-14.999C6.88.348.164 7.064.164 15.347z"/>
        <path id="xm77hms9bw" d="M.164 15.347c0 8.285 6.716 15.001 14.999 15.001 8.285 0 15-6.716 15-15.001 0-8.283-6.715-14.999-15-14.999C6.88.348.164 7.064.164 15.347z"/>
        <path id="ablwv47mky" d="M.164 15.347c0 8.285 6.716 15.001 14.999 15.001 8.285 0 15-6.716 15-15.001 0-8.283-6.715-14.999-15-14.999C6.88.348.164 7.064.164 15.347z"/>
        <path id="4bwjke4ywA" d="M.164 15.347c0 8.285 6.716 15.001 14.999 15.001 8.285 0 15-6.716 15-15.001 0-8.283-6.715-14.999-15-14.999C6.88.348.164 7.064.164 15.347"/>
        <path id="tneemva9oC" d="M.164 15.347c0 8.285 6.716 15.001 14.999 15.001 8.285 0 15-6.716 15-15.001 0-8.283-6.715-14.999-15-14.999C6.88.348.164 7.064.164 15.347z"/>
        <path id="imqjd1936E" d="M.164 15.347c0 8.285 6.716 15.001 14.999 15.001 8.285 0 15-6.716 15-15.001 0-8.283-6.715-14.999-15-14.999C6.88.348.164 7.064.164 15.347z"/>
        <path id="bjrrtlt92G" d="M.164 15.347c0 8.285 6.716 15.001 14.999 15.001 8.285 0 15-6.716 15-15.001 0-8.283-6.715-14.999-15-14.999C6.88.348.164 7.064.164 15.347z"/>
        <path id="olu0p1oa1I" d="M.164 15.347c0 8.285 6.716 15.001 14.999 15.001 8.285 0 15-6.716 15-15.001 0-8.283-6.715-14.999-15-14.999C6.88.348.164 7.064.164 15.347z"/>
        <path id="sj6sq6e1hK" d="M.164 15.347c0 8.285 6.716 15.001 14.999 15.001 8.285 0 15-6.716 15-15.001 0-8.283-6.715-14.999-15-14.999C6.88.348.164 7.064.164 15.347z"/>
        <path id="zzarvnjccM" d="M.164 15.347c0 8.285 6.716 15.001 14.999 15.001 8.285 0 15-6.716 15-15.001 0-8.283-6.715-14.999-15-14.999C6.88.348.164 7.064.164 15.347z"/>
        <path id="131zisb87O" d="M.164 15.347c0 8.285 6.716 15.001 14.999 15.001 8.285 0 15-6.716 15-15.001 0-8.283-6.715-14.999-15-14.999C6.88.348.164 7.064.164 15.347"/>
        <path id="t0qya4aieQ" d="M.164 15.347c0 8.285 6.716 15.001 14.999 15.001 8.285 0 15-6.716 15-15.001 0-8.283-6.715-14.999-15-14.999C6.88.348.164 7.064.164 15.347z"/>
        <path id="9blmcqkmtS" d="M.164 15.347c0 8.285 6.716 15.001 14.999 15.001 8.285 0 15-6.716 15-15.001 0-8.283-6.715-14.999-15-14.999C6.88.348.164 7.064.164 15.347"/>
        <path id="fyjx2c37yU" d="M.164 15.347c0 8.285 6.716 15.001 14.999 15.001 8.285 0 15-6.716 15-15.001 0-8.283-6.715-14.999-15-14.999C6.88.348.164 7.064.164 15.347z"/>
        <path id="xcojyrrunW" d="M.164 15.347c0 8.285 6.716 15.001 14.999 15.001 8.285 0 15-6.716 15-15.001 0-8.283-6.715-14.999-15-14.999C6.88.348.164 7.064.164 15.347"/>
        <path id="0ldd9c42mY" d="M.164 15.347c0 8.285 6.716 15.001 14.999 15.001 8.285 0 15-6.716 15-15.001 0-8.283-6.715-14.999-15-14.999C6.88.348.164 7.064.164 15.347z"/>
        <path id="1ji1ove6paa" d="M.164 15.347c0 8.285 6.716 15.001 14.999 15.001 8.285 0 15-6.716 15-15.001 0-8.283-6.715-14.999-15-14.999C6.88.348.164 7.064.164 15.347z"/>
        <path id="huj33wk10ac" d="M.164 15.347c0 8.285 6.716 15.001 14.999 15.001 8.285 0 15-6.716 15-15.001 0-8.283-6.715-14.999-15-14.999C6.88.348.164 7.064.164 15.347z"/>
        <path id="ha4vbl6g8ae" d="M.164 15.347c0 8.285 6.716 15.001 14.999 15.001 8.285 0 15-6.716 15-15.001 0-8.283-6.715-14.999-15-14.999C6.88.348.164 7.064.164 15.347z"/>
        <path id="h1k6x2lbaag" d="M.164 15.347c0 8.285 6.716 15.001 14.999 15.001 8.285 0 15-6.716 15-15.001 0-8.283-6.715-14.999-15-14.999C6.88.348.164 7.064.164 15.347"/>
        <path id="fwik8knhpai" d="M.164 15.347c0 8.285 6.716 15.001 14.999 15.001 8.285 0 15-6.716 15-15.001 0-8.283-6.715-14.999-15-14.999C6.88.348.164 7.064.164 15.347z"/>
        <path id="7747triw2ak" d="M.164 15.347c0 8.285 6.716 15.001 14.999 15.001 8.285 0 15-6.716 15-15.001 0-8.283-6.715-14.999-15-14.999C6.88.348.164 7.064.164 15.347z"/>
        <path id="e486sblt1am" d="M.164 15.347c0 8.285 6.716 15.001 14.999 15.001 8.285 0 15-6.716 15-15.001 0-8.283-6.715-14.999-15-14.999C6.88.348.164 7.064.164 15.347z"/>
        <path id="cjrvgmcpiao" d="M.164 15.347c0 8.285 6.716 15.001 14.999 15.001 8.285 0 15-6.716 15-15.001 0-8.283-6.715-14.999-15-14.999C6.88.348.164 7.064.164 15.347z"/>
        <path id="naglm1mzeaq" d="M.164 15.347c0 8.285 6.716 15.001 14.999 15.001 8.285 0 15-6.716 15-15.001 0-8.283-6.715-14.999-15-14.999C6.88.348.164 7.064.164 15.347z"/>
        <path id="cms2gqrgbas" d="M.164 15.347c0 8.285 6.716 15.001 14.999 15.001 8.285 0 15-6.716 15-15.001 0-8.283-6.715-14.999-15-14.999C6.88.348.164 7.064.164 15.347z"/>
        <path id="y29oev4n0au" d="M.164 15.347c0 8.285 6.716 15.001 14.999 15.001 8.285 0 15-6.716 15-15.001 0-8.283-6.715-14.999-15-14.999C6.88.348.164 7.064.164 15.347z"/>
        <path id="nj8noauzaaw" d="M.164 15.347c0 8.285 6.716 15.001 14.999 15.001 8.285 0 15-6.716 15-15.001 0-8.283-6.715-14.999-15-14.999C6.88.348.164 7.064.164 15.347z"/>
        <path id="dfedz2gk5ay" d="M.164 15.347c0 8.285 6.716 15.001 14.999 15.001 8.285 0 15-6.716 15-15.001 0-8.283-6.715-14.999-15-14.999C6.88.348.164 7.064.164 15.347z"/>
        <path id="vzfd7lg7caA" d="M.164 15.347c0 8.285 6.716 15.001 14.999 15.001 8.285 0 15-6.716 15-15.001 0-8.283-6.715-14.999-15-14.999C6.88.348.164 7.064.164 15.347z"/>
        <path id="vxzzixyfraC" d="M.164 15.347c0 8.285 6.716 15.001 14.999 15.001 8.285 0 15-6.716 15-15.001 0-8.283-6.715-14.999-15-14.999C6.88.348.164 7.064.164 15.347z"/>
        <path id="2kk2rv6piaE" d="M.164 15.347c0 8.285 6.716 15.001 14.999 15.001 8.285 0 15-6.716 15-15.001 0-8.283-6.715-14.999-15-14.999C6.88.348.164 7.064.164 15.347z"/>
        <path id="473ljvp34aG" d="M.164 15.347c0 8.285 6.716 15.001 14.999 15.001 8.285 0 15-6.716 15-15.001 0-8.283-6.715-14.999-15-14.999C6.88.348.164 7.064.164 15.347z"/>
        <path id="xic8su1tbaI" d="M.164 15.347c0 8.285 6.716 15.001 14.999 15.001 8.285 0 15-6.716 15-15.001 0-8.283-6.715-14.999-15-14.999C6.88.348.164 7.064.164 15.347z"/>
        <path id="fxd6an9y9aK" d="M.164 15.347c0 8.285 6.716 15.001 14.999 15.001 8.285 0 15-6.716 15-15.001 0-8.283-6.715-14.999-15-14.999C6.88.348.164 7.064.164 15.347z"/>
        <path id="77o44b1pqaM" d="M.164 15.347c0 8.285 6.716 15.001 14.999 15.001 8.285 0 15-6.716 15-15.001 0-8.283-6.715-14.999-15-14.999C6.88.348.164 7.064.164 15.347z"/>
        <path id="yz8zj4vmuaO" d="M.164 15.347c0 8.285 6.716 15.001 14.999 15.001 8.285 0 15-6.716 15-15.001 0-8.283-6.715-14.999-15-14.999C6.88.348.164 7.064.164 15.347z"/>
        <path id="0zarww60aaQ" d="M.164 15.347c0 8.285 6.716 15.001 14.999 15.001 8.285 0 15-6.716 15-15.001 0-8.283-6.715-14.999-15-14.999C6.88.348.164 7.064.164 15.347z"/>
        <path id="5vbgnxu1daS" d="M.164 15.347c0 8.285 6.716 15.001 14.999 15.001 8.285 0 15-6.716 15-15.001 0-8.283-6.715-14.999-15-14.999C6.88.348.164 7.064.164 15.347z"/>
        <path id="j7e7yw8siaU" d="M.164 15.347c0 8.285 6.716 15.001 14.999 15.001 8.285 0 15-6.716 15-15.001 0-8.283-6.715-14.999-15-14.999C6.88.348.164 7.064.164 15.347z"/>
        <path id="w1hoq5wgsaW" d="M.164 15.347c0 8.285 6.716 15.001 14.999 15.001 8.285 0 15-6.716 15-15.001 0-8.283-6.715-14.999-15-14.999C6.88.348.164 7.064.164 15.347z"/>
        <path id="4hzwxw7j2aY" d="M.164 15.347c0 8.285 6.716 15.001 14.999 15.001 8.285 0 15-6.716 15-15.001 0-8.283-6.715-14.999-15-14.999C6.88.348.164 7.064.164 15.347z"/>
        <path id="b907cvpiyba" d="M.164 15.347c0 8.285 6.716 15.001 14.999 15.001 8.285 0 15-6.716 15-15.001 0-8.283-6.715-14.999-15-14.999C6.88.348.164 7.064.164 15.347z"/>
        <path id="pbowhmll4bc" d="M.164 15.347c0 8.285 6.716 15.001 14.999 15.001 8.285 0 15-6.716 15-15.001 0-8.283-6.715-14.999-15-14.999C6.88.348.164 7.064.164 15.347z"/>
        <path id="54pt5adp3be" d="M.164 15.347c0 8.285 6.716 15.001 14.999 15.001 8.285 0 15-6.716 15-15.001 0-8.283-6.715-14.999-15-14.999C6.88.348.164 7.064.164 15.347z"/>
    </defs>
    <g fill="none" fill-rule="evenodd">
        <g>
            <g transform="translate(1) translate(0 .817)">
                <mask id="q5w10fyebb" fill="#fff">
                    <use xlink:href="#pdahi00u3a"/>
                </mask>
                <path fill="#D32027" d="M6.516 27.8c2.356 1.642 5.134 2.578 8.004 2.694h.221-.128c.181.008.36.012.55.012h.142-.143c3.091.003 6.11-.942 8.646-2.71H6.516v.003z" mask="url(#q5w10fyebb)"/>
            </g>
            <g transform="translate(1) translate(0 .817)">
                <mask id="j8d4286fud" fill="#fff">
                    <use xlink:href="#51vmhq9j9c"/>
                </mask>
                <path fill="#D32027" d="M14.85.193V2.97h9.068C21.608 1.33 18.88.373 16.05.211c-.294-.017-.59-.028-.887-.028-.297 0-.592.011-.886.028-1.922.11-3.805.586-5.547 1.405C10.648.717 12.733.233 14.85.193" mask="url(#j8d4286fud)"/>
            </g>
            <g transform="translate(1) translate(0 .817)">
                <mask id="fbqbn739vf" fill="#fff">
                    <use xlink:href="#7fjpemxb2e"/>
                </mask>
                <path fill="#D32027" d="M30.258 16.764H.07c.085.935.26 1.858.517 2.761h29.15c.258-.903.431-1.826.518-2.76h.004z" mask="url(#fbqbn739vf)"/>
            </g>
            <g transform="translate(1) translate(0 .817)">
                <mask id="4rfzymo63h" fill="#fff">
                    <use xlink:href="#is5lxgew3g"/>
                </mask>
                <path stroke="#D32027" stroke-linecap="round" stroke-linejoin="round" d="M14.614 30.5L14.521 30.5" mask="url(#4rfzymo63h)"/>
            </g>
            <g transform="translate(1) translate(0 .817)">
                <mask id="08wkqy33ij" fill="#fff">
                    <use xlink:href="#j99csj3c2i"/>
                </mask>
                <path fill="#FFF" d="M5.125 3.99l.138-.12-.138.12z" mask="url(#08wkqy33ij)"/>
            </g>
            <g transform="translate(1) translate(0 .817)">
                <mask id="cfwi4ncp7l" fill="#fff">
                    <use xlink:href="#m5hfiru1ak"/>
                </mask>
                <path fill="#FFF" d="M5.583 3.597l.053-.04-.053.04z" mask="url(#cfwi4ncp7l)"/>
            </g>
            <g transform="translate(1) translate(0 .817)">
                <mask id="84qg124ten" fill="#fff">
                    <use xlink:href="#rukxs57jgm"/>
                </mask>
                <path fill="#FFF" d="M4.954 4.142c-.218.198-.43.402-.636.613.205-.21.417-.415.636-.613" mask="url(#84qg124ten)"/>
            </g>
            <g transform="translate(1) translate(0 .817)">
                <mask id="gw7uw46g3p" fill="#fff">
                    <use xlink:href="#gbf5yjltno"/>
                </mask>
                <path fill="#FFF" d="M5.966 3.296l.052-.04-.052.04z" mask="url(#gw7uw46g3p)"/>
            </g>
            <g transform="translate(1) translate(0 .817)">
                <mask id="1q29gra66r" fill="#fff">
                    <use xlink:href="#t4bbwjj9kq"/>
                </mask>
                <path fill="#FFF" d="M4.31 4.763c-.303.31-.594.63-.869.96.277-.332.566-.65.868-.96" mask="url(#1q29gra66r)"/>
            </g>
            <g transform="translate(1) translate(0 .817)">
                <mask id="h6a43fk1gt" fill="#fff">
                    <use xlink:href="#ugo5uuzj0s"/>
                </mask>
                <path fill="#FFF" d="M18.48 2.97h-3.63v2.761h12.035c-.862-1.048-1.86-1.977-2.967-2.76H18.48z" mask="url(#h6a43fk1gt)"/>
            </g>
            <g transform="translate(1) translate(0 .817)">
                <mask id="fxxxrgfcmv" fill="#fff">
                    <use xlink:href="#3jju6we30u"/>
                </mask>
                <path fill="#D32027" d="M7.257 2.412l.24-.146-.24.146z" mask="url(#fxxxrgfcmv)"/>
            </g>
            <g transform="translate(1) translate(0 .817)">
                <mask id="zdb4pmfxnx" fill="#fff">
                    <use xlink:href="#xm77hms9bw"/>
                </mask>
                <path fill="#D32027" d="M7.006 2.569l.13-.082-.13.082z" mask="url(#zdb4pmfxnx)"/>
            </g>
            <g transform="translate(1) translate(0 .817)">
                <mask id="7ic6gtc3uz" fill="#fff">
                    <use xlink:href="#ablwv47mky"/>
                </mask>
                <path fill="#D32027" d="M6.766 2.726l.103-.068-.103.068z" mask="url(#7ic6gtc3uz)"/>
            </g>
            <g transform="translate(1) translate(0 .817)">
                <mask id="4swpjwitbB" fill="#fff">
                    <use xlink:href="#4bwjke4ywA"/>
                </mask>
                <path fill="#D32027" d="M8.128 1.916c.197-.103.397-.202.601-.297-.204.095-.404.194-.6.297" mask="url(#4swpjwitbB)"/>
            </g>
            <g transform="translate(1) translate(0 .817)">
                <mask id="ys5vq8g07D" fill="#fff">
                    <use xlink:href="#tneemva9oC"/>
                </mask>
                <path fill="#D32027" d="M7.859 2.061l.222-.12-.222.12z" mask="url(#ys5vq8g07D)"/>
            </g>
            <g transform="translate(1) translate(0 .817)">
                <mask id="phqamlf2pF" fill="#fff">
                    <use xlink:href="#imqjd1936E"/>
                </mask>
                <path fill="#D32027" d="M7.577 2.22l.199-.113-.2.112z" mask="url(#phqamlf2pF)"/>
            </g>
            <g transform="translate(1) translate(0 .817)">
                <mask id="r3l29rwm6H" fill="#fff">
                    <use xlink:href="#bjrrtlt92G"/>
                </mask>
            </g>
            <g transform="translate(1) translate(0 .817)">
                <mask id="51h5j2tlmJ" fill="#fff">
                    <use xlink:href="#olu0p1oa1I"/>
                </mask>
                <path fill="#FFF" d="M1.477 8.821v-.008.008z" mask="url(#51h5j2tlmJ)"/>
            </g>
            <g transform="translate(1) translate(0 .817)">
                <mask id="ozrzhz49hL" fill="#fff">
                    <use xlink:href="#sj6sq6e1hK"/>
                </mask>
                <path fill="#FFF" d="M14.85 11.247h14.911c-.268-.953-.63-1.877-1.08-2.76h-13.83v2.76z" mask="url(#ozrzhz49hL)"/>
            </g>
            <g transform="translate(1) translate(0 .817)">
                <mask id="tpub52x8hN" fill="#fff">
                    <use xlink:href="#zzarvnjccM"/>
                </mask>
                <path fill="#D32027" d="M14.85 5.728v2.76h13.835c-.498-.983-1.102-1.907-1.8-2.76H14.85z" mask="url(#tpub52x8hN)"/>
            </g>
            <g transform="translate(1) translate(0 .817)">
                <mask id="hywmj9d9sP" fill="#fff">
                    <use xlink:href="#131zisb87O"/>
                </mask>
                <path fill="#D32027" d="M3.44 5.728c-.297.362-.577.74-.84 1.13.265-.39.544-.767.84-1.13" mask="url(#hywmj9d9sP)"/>
            </g>
            <g transform="translate(1) translate(0 .817)">
                <mask id="fr0o6fcmlR" fill="#fff">
                    <use xlink:href="#t0qya4aieQ"/>
                </mask>
                <path fill="#D32027" d="M1.646 8.477v.011-.01z" mask="url(#fr0o6fcmlR)"/>
            </g>
            <g transform="translate(1) translate(0 .817)">
                <mask id="6gp6d900rT" fill="#fff">
                    <use xlink:href="#9blmcqkmtS"/>
                </mask>
                <path fill="#D32027" d="M2.42 7.133c.058-.09.116-.18.177-.269l-.178.27" mask="url(#6gp6d900rT)"/>
            </g>
            <g transform="translate(1) translate(0 .817)">
                <mask id="w7bmk62wmV" fill="#fff">
                    <use xlink:href="#fyjx2c37yU"/>
                </mask>
                <path fill="#D32027" d="M2.023 7.783l.018-.03-.018.03z" mask="url(#w7bmk62wmV)"/>
            </g>
            <g transform="translate(1) translate(0 .817)">
                <mask id="xvwuz4bnoX" fill="#fff">
                    <use xlink:href="#xcojyrrunW"/>
                </mask>
                <path fill="#D32027" d="M2.233 7.428l.133-.21c-.045.07-.087.14-.133.21" mask="url(#xvwuz4bnoX)"/>
            </g>
            <g transform="translate(1) translate(0 .817)">
                <mask id="va9kbsyu6Z" fill="#fff">
                    <use xlink:href="#0ldd9c42mY"/>
                </mask>
                <path fill="#D32027" d="M1.824 8.14l.016-.03-.016.03z" mask="url(#va9kbsyu6Z)"/>
            </g>
            <g transform="translate(1) translate(0 .817)">
                <mask id="xvr2dh7xjab" fill="#fff">
                    <use xlink:href="#1ji1ove6paa"/>
                </mask>
                <path fill="#FFF" d="M21.073 16.764h9.183c.044-.467.068-.939.068-1.417 0-.452-.023-.898-.063-1.342H.06c-.037.444-.06.89-.06 1.341 0 .481.024.95.068 1.417l21.004.001z" mask="url(#xvr2dh7xjab)"/>
            </g>
            <g transform="translate(1) translate(0 .817)">
                <mask id="mo27waxw6ad" fill="#fff">
                    <use xlink:href="#huj33wk10ac"/>
                </mask>
                <path fill="#D32027" d="M20.556 14.006h9.708c-.082-.934-.25-1.857-.503-2.76H14.845v2.734H.065v.025h20.491z" mask="url(#mo27waxw6ad)"/>
            </g>
            <g transform="translate(1) translate(0 .817)">
                <mask id="a5jimzzznaf" fill="#fff">
                    <use xlink:href="#ha4vbl6g8ae"/>
                </mask>
                <path fill="#D32027" d="M.195 12.971v-.02.02z" mask="url(#a5jimzzznaf)"/>
            </g>
            <g transform="translate(1) translate(0 .817)">
                <mask id="wseesket6ah" fill="#fff">
                    <use xlink:href="#h1k6x2lbaag"/>
                </mask>
                <path fill="#FFF" d="M1.68 22.276h26.964c.454-.882.82-1.806 1.093-2.76H.587c.273.954.638 1.878 1.093 2.76" mask="url(#wseesket6ah)"/>
            </g>
            <g transform="translate(1) translate(0 .817)">
                <mask id="2xe3ypzucaj" fill="#fff">
                    <use xlink:href="#fwik8knhpai"/>
                </mask>
                <path fill="#FFF" d="M19.706 25.04h-16.2c.876 1.053 1.888 1.98 3.012 2.762H23.81c1.123-.782 2.135-1.71 3.01-2.761h-7.114z" mask="url(#2xe3ypzucaj)"/>
            </g>
            <g transform="translate(1) translate(0 .817)">
                <mask id="68t00ht4yal" fill="#fff">
                    <use xlink:href="#7747triw2ak"/>
                </mask>
                <path fill="#D32027" d="M1.681 22.282c.506.984 1.117 1.909 1.824 2.76H26.82c.707-.851 1.318-1.776 1.824-2.76H1.68h.001z" mask="url(#68t00ht4yal)"/>
            </g>
            <g transform="translate(1) translate(0 .817)">
                <mask id="b3hpjy57dan" fill="#fff">
                    <use xlink:href="#e486sblt1am"/>
                </mask>
                <path fill="#283991" d="M13.696 13.152l-.601-.44-.6.44.232-.712-.6-.44h.75l.23-.712.233.712h.747l-.6.44.209.712zm-3.12-1.697l-.6.44.232-.712-.601-.438h.749l.232-.712.23.712h.749l-.6.438.23.712-.621-.44zm-1.908 1.697l-.6-.44-.601.44.233-.712-.601-.44h.749l.232-.712.23.712h.75l-.6.44.208.712zm-3.12-1.697l-.6.44.23-.712-.598-.438h.748l.232-.712.232.712h.737l-.6.438.232.712-.613-.44zm-1.91 1.697l-.598-.44-.6.44.23-.712-.6-.44h.739l.232-.712.23.712h.738l-.6.44.23.712zM.52 11.455l-.011.01c.069-.262.143-.519.224-.774l.018.052h.747l-.6.44.232.711-.61-.439zm3.119-.817l-.6-.44-.6.44.232-.71-.601-.44h.739l.232-.713.23.712h.738l-.6.44.23.711zm.93-2.408h.748l.233-.71.23.71h.749l-.6.44.232.711-.6-.439-.6.44.232-.712-.624-.44zM2.803 6.974l.23-.712.232.712h.744l-.6.441.232.711-.6-.44-.6.44.23-.71-.283-.206c.049-.08.1-.158.15-.24l.265.004zM4.57 5.717h.749l.23-.71.233.71h.747l-.6.441.232.712-.6-.44-.6.44.232-.712-.623-.44zm.466-1.64c.34-.308.693-.598 1.06-.872h.432l-.6.44.232.712-.6-.439-.6.44.076-.282zm2.796.385l.23-.712.233.712h.749l-.601.44.232.711-.6-.44-.6.44.232-.71-.601-.44h.726zm2.744-1.969l.23.712h.749l-.6.44.23.712-.6-.439-.6.44.232-.713-.6-.44h.749l.21-.712zm2.28-.545l.232-.71.23.71h.749l-.6.44.23.711-.6-.44-.6.44.233-.712-.6-.439h.726zm.232 1.801l.23.711h.749l-.6.44.23.712-.6-.44-.6.44.233-.712-.6-.44h.749l.209-.71zm-1.91 3.12l-.598-.44-.601.44.232-.712-.6-.44h.749l.232-.712.23.711h.749l-.601.441.209.712zm2.514 1.257l-.6-.44-.6.44.232-.71-.6-.442h.749l.23-.712.233.712h.748l-.601.441.209.711zM7.829 6.974l.23-.712.234.712h.748l-.6.441.232.711-.6-.44-.601.44.232-.71-.6-.442h.725zm.84 3.664l-.6-.44-.6.44.232-.71-.601-.44h.749l.232-.713.23.712h.75l-.6.44.208.711zm2.28-1.968l.23.711-.6-.439-.6.44.232-.712-.6-.44h.749l.232-.71.23.71h.749l-.622.44zm2.744 1.968l-.6-.44-.6.44.232-.71-.6-.44h.749l.23-.713.233.712h.748l-.6.44.208.711zm1.157.611V.193c-2.117.04-4.202.526-6.12 1.426-.201.094-.401.193-.6.297l-.05.026-.221.12-.083.046-.2.112-.06.036c.24-.142.493-.277.745-.405l.032.096h.747l-.6.44.232.711-.601-.44-.6.44.23-.712-.174-.127-.011.006-.24.147-.12.075-.147.084-.137.09-.104.067c-.255.17-.503.347-.746.53l-.055.033-.331.26-.051.041c-.11.09-.216.18-.322.27l-.137.12-.171.154c-.218.2-.43.403-.636.613l-.01.01c-.3.31-.588.628-.862.96-.3.363-.58.74-.841 1.13-.06.088-.12.177-.177.268l-.054.084c-.044.07-.09.14-.132.21-.066.107-.13.216-.193.325l-.017.028c-.063.11-.123.22-.184.328l-.015.03c-.061.111-.12.224-.178.338v.01c-.054.106-.106.212-.157.32v.007C.875 10.104.442 11.494.215 12.924v.022c-.017.108-.033.217-.048.325 0 .018 0 .033-.006.05-.013.101-.027.201-.037.302v.045c-.011.095-.021.192-.03.288h14.787l-.031-2.707z" mask="url(#b3hpjy57dan)"/>
            </g>
            <g transform="translate(1) translate(0 .817)">
                <mask id="xri2446uwap" fill="#fff">
                    <use xlink:href="#cjrvgmcpiao"/>
                </mask>
                <path fill="#FFF" d="M3.265 9.487L3.035 8.775 2.803 9.487 2.054 9.487 2.655 9.927 2.424 10.638 3.024 10.198 3.624 10.638 3.392 9.927 3.993 9.487z" mask="url(#xri2446uwap)"/>
            </g>
            <g transform="translate(1) translate(0 .817)">
                <mask id="hj1v9b5lsar" fill="#fff">
                    <use xlink:href="#naglm1mzeaq"/>
                </mask>
                <path fill="#FFF" d="M3.265 12L3.035 11.288 2.803 12 2.054 12 2.655 12.44 2.424 13.152 3.024 12.712 3.624 13.152 3.392 12.44 3.993 12z" mask="url(#hj1v9b5lsar)"/>
            </g>
            <g transform="translate(1) translate(0 .817)">
                <mask id="4frns8386at" fill="#fff">
                    <use xlink:href="#cms2gqrgbas"/>
                </mask>
                <path fill="#FFF" d="M4.942 6.867L5.542 6.429 6.142 6.867 5.91 6.156 6.51 5.716 5.762 5.716 5.531 5.004 5.299 5.716 4.55 5.716 5.151 6.156z" mask="url(#4frns8386at)"/>
            </g>
            <g transform="translate(1) translate(0 .817)">
                <mask id="elcsfnln0av" fill="#fff">
                    <use xlink:href="#y29oev4n0au"/>
                </mask>
                <path fill="#FFF" d="M4.942 9.382L5.542 8.943 6.142 9.382 5.91 8.669 6.51 8.23 5.762 8.23 5.531 7.519 5.299 8.23 4.55 8.23 5.151 8.669z" mask="url(#elcsfnln0av)"/>
            </g>
            <g transform="translate(1) translate(0 .817)">
                <mask id="mxyixab5wax" fill="#fff">
                    <use xlink:href="#nj8noauzaaw"/>
                </mask>
                <path fill="#FFF" d="M5.92 11.183L6.521 10.745 5.773 10.745 5.541 10.033 5.31 10.745 4.561 10.745 5.161 11.183 4.929 11.895 5.529 11.454 6.129 11.895z" mask="url(#mxyixab5wax)"/>
            </g>
            <g transform="translate(1) translate(0 .817)">
                <mask id="1pw0gb5uoaz" fill="#fff">
                    <use xlink:href="#dfedz2gk5ay"/>
                </mask>
                <path fill="#FFF" d="M.894 11.183l.6-.438H.747l-.017-.052c-.082.254-.156.511-.225.771l.011-.009.6.441-.222-.713z" mask="url(#1pw0gb5uoaz)"/>
            </g>
            <g transform="translate(1) translate(0 .817)">
                <mask id="p2zhlc59faB" fill="#fff">
                    <use xlink:href="#vzfd7lg7caA"/>
                </mask>
                <path fill="#FFF" d="M2.66 7.412l-.23.712.599-.441.6.44-.232-.711.6-.44H3.25l-.232-.711-.231.71H2.51c-.052.079-.101.157-.152.24l.302.2z" mask="url(#p2zhlc59faB)"/>
            </g>
            <g transform="translate(1) translate(0 .817)">
                <mask id="la437de1taD" fill="#fff">
                    <use xlink:href="#vxzzixyfraC"/>
                </mask>
                <path fill="#FFF" d="M6.153 4.354l-.232-.71.6-.44h-.432c-.368.273-.721.563-1.061.87l-.091.28.6-.44.616.44z" mask="url(#la437de1taD)"/>
            </g>
            <g transform="translate(1) translate(0 .817)">
                <mask id="dz7oxwkmxaF" fill="#fff">
                    <use xlink:href="#2kk2rv6piaE"/>
                </mask>
                <path fill="#FFF" d="M7.686 2.386l-.23.712.599-.44.601.44-.232-.712.6-.439h-.747l-.031-.096c-.252.128-.501.262-.745.404h-.005l.19.131z" mask="url(#dz7oxwkmxaF)"/>
            </g>
            <g transform="translate(1) translate(0 .817)">
                <mask id="pxlzfuzhdaH" fill="#fff">
                    <use xlink:href="#473ljvp34aG"/>
                </mask>
                <path fill="#FFF" d="M7.686 4.9L7.455 5.612 8.054 5.171 8.655 5.612 8.423 4.9 9.023 4.46 8.275 4.46 8.043 3.749 7.812 4.46 7.063 4.46z" mask="url(#pxlzfuzhdaH)"/>
            </g>
            <g transform="translate(1) translate(0 .817)">
                <mask id="fadh562n1aJ" fill="#fff">
                    <use xlink:href="#xic8su1tbaI"/>
                </mask>
                <path fill="#FFF" d="M7.455 8.125L8.056 7.685 8.655 8.125 8.425 7.413 9.024 6.973 8.277 6.973 8.044 6.262 7.813 6.973 7.064 6.973 7.665 7.413z" mask="url(#fadh562n1aJ)"/>
            </g>
            <g transform="translate(1) translate(0 .817)">
                <mask id="i8itdog0naL" fill="#fff">
                    <use xlink:href="#fxd6an9y9aK"/>
                </mask>
                <path fill="#FFF" d="M8.292 9.487L8.06 8.775 7.828 9.487 7.079 9.487 7.68 9.927 7.448 10.638 8.048 10.198 8.648 10.638 8.416 9.927 9.017 9.487z" mask="url(#i8itdog0naL)"/>
            </g>
            <g transform="translate(1) translate(0 .817)">
                <mask id="jkrd7o9bdaN" fill="#fff">
                    <use xlink:href="#77o44b1pqaM"/>
                </mask>
                <path fill="#FFF" d="M8.292 12L8.06 11.288 7.828 12 7.079 12 7.68 12.44 7.448 13.152 8.048 12.712 8.648 13.152 8.416 12.44 9.017 12z" mask="url(#jkrd7o9bdaN)"/>
            </g>
            <g transform="translate(1) translate(0 .817)">
                <mask id="ey9z19dmuaP" fill="#fff">
                    <use xlink:href="#yz8zj4vmuaO"/>
                </mask>
                <path fill="#FFF" d="M9.594 3.203L10.194 3.643 9.962 4.354 10.562 3.915 11.162 4.354 10.932 3.643 11.531 3.203 10.784 3.203 10.553 2.491 10.321 3.203z" mask="url(#ey9z19dmuaP)"/>
            </g>
            <g transform="translate(1) translate(0 .817)">
                <mask id="xtvl4lyfuaR" fill="#fff">
                    <use xlink:href="#0zarww60aaQ"/>
                </mask>
                <path fill="#FFF" d="M11.552 5.716L10.805 5.716 10.573 5.005 10.341 5.716 9.593 5.716 10.193 6.157 9.961 6.869 10.561 6.429 11.161 6.869 10.931 6.157z" mask="url(#xtvl4lyfuaR)"/>
            </g>
            <g transform="translate(1) translate(0 .817)">
                <mask id="2f84gfok8aT" fill="#fff">
                    <use xlink:href="#5vbgnxu1daS"/>
                </mask>
                <path fill="#FFF" d="M10.805 8.229L10.574 7.517 10.341 8.229 9.593 8.229 10.193 8.668 9.961 9.379 10.561 8.941 11.161 9.379 10.931 8.668 11.531 8.229z" mask="url(#2f84gfok8aT)"/>
            </g>
            <g transform="translate(1) translate(0 .817)">
                <mask id="9x0gfh6meaV" fill="#fff">
                    <use xlink:href="#j7e7yw8siaU"/>
                </mask>
                <path fill="#FFF" d="M10.948 11.183L11.548 10.745 10.801 10.745 10.569 10.033 10.337 10.745 9.589 10.745 10.188 11.183 9.957 11.895 10.556 11.454 11.157 11.895z" mask="url(#9x0gfh6meaV)"/>
            </g>
            <g transform="translate(1) translate(0 .817)">
                <mask id="9snu2l8o4aX" fill="#fff">
                    <use xlink:href="#w1hoq5wgsaW"/>
                </mask>
                <path fill="#FFF" d="M12.481 3.098L13.082 2.658 13.681 3.098 13.45 2.386 14.049 1.947 13.302 1.947 13.071 1.236 12.839 1.947 12.091 1.947 12.691 2.386z" mask="url(#9snu2l8o4aX)"/>
            </g>
            <g transform="translate(1) translate(0 .817)">
                <mask id="xu8dgijqgaZ" fill="#fff">
                    <use xlink:href="#4hzwxw7j2aY"/>
                </mask>
                <path fill="#FFF" d="M12.712 4.9L12.481 5.612 13.081 5.171 13.681 5.612 13.449 4.9 14.049 4.46 13.302 4.46 13.07 3.749 12.839 4.46 12.091 4.46z" mask="url(#xu8dgijqgaZ)"/>
            </g>
            <g transform="translate(1) translate(0 .817)">
                <mask id="uzenx4ksmbb" fill="#fff">
                    <use xlink:href="#b907cvpiyba"/>
                </mask>
                <path fill="#FFF" d="M13.318 6.972L13.087 6.261 12.854 6.972 12.107 6.972 12.707 7.412 12.475 8.124 13.076 7.684 13.675 8.124 13.444 7.412 14.044 6.972z" mask="url(#uzenx4ksmbb)"/>
            </g>
            <g transform="translate(1) translate(0 .817)">
                <mask id="53cagdr34bd" fill="#fff">
                    <use xlink:href="#pbowhmll4bc"/>
                </mask>
                <path fill="#FFF" d="M13.318 9.487L13.087 8.775 12.854 9.487 12.107 9.487 12.707 9.927 12.475 10.638 13.076 10.198 13.675 10.638 13.444 9.927 14.044 9.487z" mask="url(#53cagdr34bd)"/>
            </g>
            <g transform="translate(1) translate(0 .817)">
                <mask id="antzpvlpfbf" fill="#fff">
                    <use xlink:href="#54pt5adp3be"/>
                </mask>
                <path fill="#FFF" d="M13.318 12L13.087 11.288 12.854 12 12.107 12 12.707 12.44 12.475 13.152 13.076 12.712 13.675 13.152 13.444 12.44 14.044 12z" mask="url(#antzpvlpfbf)"/>
            </g>
        </g>
    </g>
</svg>
