<svg xmlns="http://www.w3.org/2000/svg" xmlns:xlink="http://www.w3.org/1999/xlink" width="32" height="32" viewBox="0 0 32 32">
    <defs>
        <path id="sjrkeei8na" d="M0 0L30 0 30 30 0 30z"/>
    </defs>
    <g fill="none" fill-rule="evenodd" opacity=".5">
        <g>
            <g>
                <g>
                    <path d="M0 16L0 0 32 0 32 16 32 32 0 32z" transform="translate(-268 -177) translate(0 80) translate(268 97)"/>
                    <g>
                        <path fill="#FFF" d="M21.983 19.089v-.001h7.448c.189-.663.33-1.346.427-2.043H17.046v12.813c.698-.095 1.379-.24 2.042-.426l-.001-7.447.003.004v-.007l4.97 4.97c.546-.413 1.064-.862 1.546-1.344l-6.514-6.52-.005-.004h1.928l5.513 5.513c.145-.176.287-.354.425-.535l-4.974-4.973h.004zM24.598 3.475c-.175-.146-.354-.288-.537-.427L19.088 8.02l.001-1.957V.57c-.664-.19-1.345-.332-2.044-.427l.004 12.812h12.809c-.096-.697-.239-1.38-.427-2.043l-7.439.003.004-.004h-.019l4.974-4.974c-.414-.544-.862-1.061-1.344-1.543l-6.519 6.518.001-1.705v-.223l5.509-5.51zM10.91 21.016l-5.508 5.51c.175.146.354.288.535.426l4.974-4.972v.003l.005-.003v7.453c.662.187 1.343.33 2.04.425V17.044H.142c.096.698.239 1.379.426 2.043l7.439-.017-.02.019h.033l-4.971 4.973c.413.545.861 1.06 1.344 1.545l6.518-6.518v1.927zM12.955.143c-.698.095-1.38.238-2.044.426V8.02L6.063 3.173l-.125-.125c-.545.414-1.06.863-1.545 1.345l6.518 6.518h-.006l.005.004H8.982l-5.51-5.51c-.146.175-.287.353-.424.534l4.972 4.973H.568c-.187.664-.33 1.346-.426 2.044h12.813V.143z" transform="translate(-268 -177) translate(0 80) translate(268 97) translate(1 1)"/>
                        <path fill="#283991" d="M8.02 10.911L3.049 5.938C1.932 7.408 1.084 9.09.568 10.911h7.453zM29.431 10.912c-.514-1.818-1.359-3.497-2.472-4.965l-4.963 4.963-.004.005 7.439-.003zM.569 19.087c.513 1.815 1.356 3.49 2.465 4.956l4.954-4.954.018-.02-7.437.018zM24.06 3.048C22.594 1.934 20.915 1.085 19.094.57l-.004 5.494-.001 1.957 4.973-4.973zM5.938 26.951c1.47 1.116 3.15 1.965 4.974 2.48V21.98l-4.974 4.972zM10.911.568c-1.822.516-3.504 1.364-4.973 2.48l.125.124 4.848 4.848V.568zM19.088 29.432c1.82-.515 3.5-1.362 4.97-2.476L19.09 21.99l-.004-.004.002 7.446zM21.983 19.089h-.004l4.974 4.973c1.114-1.47 1.963-3.15 2.478-4.971l-7.448-.002z" transform="translate(-268 -177) translate(0 80) translate(268 97) translate(1 1)"/>
                        <g transform="translate(-268 -177) translate(0 80) translate(268 97) translate(1 1)">
                            <mask id="24b1vilcxb" fill="#fff">
                                <use xlink:href="#sjrkeei8na"/>
                            </mask>
                            <path fill="#D32027" d="M17.045 17.044h12.813c.09-.67.142-1.351.142-2.044 0-.693-.052-1.375-.142-2.044H17.045V.143C16.376.05 15.693 0 15 0c-.693 0-1.374.05-2.043.142v12.813H.142C.052 13.624 0 14.305 0 15c0 .693.051 1.374.142 2.042h12.815v12.816c.67.09 1.35.142 2.043.142.692 0 1.373-.051 2.041-.142l.004-12.814z" mask="url(#24b1vilcxb)"/>
                        </g>
                        <path fill="#D32027" d="M19.087 19.084l.005.005 6.516 6.516c.322-.322.627-.659.92-1.008l-5.513-5.513h-1.928zM10.91 21.016v-1.927l-6.518 6.518c.322.32.66.627 1.01.919l5.509-5.51zM4.394 4.393c-.32.32-.626.657-.917 1.006l5.51 5.51 1.919.002h.006L4.394 4.393zM25.607 4.394c-.321-.321-.66-.628-1.01-.92l-5.507 5.51-.001.223-.001 1.705 6.519-6.518z" transform="translate(-268 -177) translate(0 80) translate(268 97) translate(1 1)"/>
                    </g>
                </g>
            </g>
        </g>
    </g>
</svg>
