<svg xmlns="http://www.w3.org/2000/svg" width="16" height="16" viewBox="0 0 16 16">
    <g fill="none" fill-rule="evenodd">
        <g>
            <g>
                <g>
                    <path d="M0 8L0 0 16 0 16 8 16 16 0 16 0 8z" transform="translate(-222 -1211) translate(222 1207) translate(0 4)"/>
                    <path fill="#007C89" d="M1 14.997l1.11-3.341 8.835-8.817 2.217 2.227-8.837 8.817L1 14.997zM12.783 1.005L15 3.232l-1.128 1.126-2.218-2.227 1.13-1.126zm2.722 14.006H4.12l.523-.175c.146-.049.28-.131.39-.24L15.704 3.945c.392-.393.393-1.029.002-1.423L13.49.295c-.386-.391-1.015-.394-1.406-.008l-.006.006L1.404 10.944c-.11.111-.195.246-.244.395L.051 14.68c-.175.527.111 1.095.638 1.27.101.033.206.05.311.051h14.505c.273 0 .495-.222.495-.495 0-.274-.222-.495-.495-.495z" transform="translate(-222 -1211) translate(222 1207) translate(0 4)"/>
                </g>
            </g>
        </g>
    </g>
</svg>
