<svg xmlns="http://www.w3.org/2000/svg" width="64" height="64" viewBox="0 0 64 64">
    <defs>
        <filter id="6jnjsx9x7a">
            <feColorMatrix in="SourceGraphic" values="0 0 0 0 1.000000 0 0 0 0 1.000000 0 0 0 0 1.000000 0 0 0 1.000000 0"/>
        </filter>
    </defs>
    <g fill="none" fill-rule="evenodd">
        <g>
            <g>
                <g filter="url(#6jnjsx9x7a)" transform="translate(-160 -144) translate(0 96) translate(160 48)">
                    <g fill="#007C89" fill-rule="nonzero">
                        <path d="M53.782 39.5c-2.166-.04-3.975-1.66-4.246-3.805-.27-2.145 1.08-4.162 3.169-4.736V18.15l-3.653 1.138v10.99c0 .293-.121.573-.335.775-4.131 3.9-10.638 6.235-17.36 6.235-6.72 0-13.17-2.335-17.366-6.235-.213-.202-.335-.482-.335-.776v-6.86c0-.59.48-1.068 1.07-1.068.591 0 1.07.478 1.07 1.067v6.406c3.818 3.338 9.526 5.33 15.562 5.33s11.8-1.992 15.554-5.33v-9.843l-14.84 4.782c-.214.072-.444.072-.657 0L.714 14.875c-.432-.152-.719-.561-.714-1.018v-4.12c.001-.477.318-.895.778-1.026L31.458.043c.19-.057.394-.057.585 0l30.68 8.668c.459.13.776.549.777 1.025v4.107c.003.456-.283.864-.714 1.018l-4.373 1.473c-.56.196-1.173-.097-1.37-.655-.197-.558.097-1.17.656-1.366l3.646-1.232v-2.533l-29.602-8.37-29.631 8.37v2.519l29.63 9.558 20.963-6.76v-1.346l-19.75-5.267c-.369-.099-.657-.387-.756-.756-.099-.369.007-.762.278-1.032s.666-.375 1.035-.276l20.541 5.48c.468.126.793.55.792 1.032v17.224c2.088.572 3.438 2.586 3.17 4.729-.266 2.143-2.068 3.766-4.233 3.811v.036zm0-6.57c-1.225.017-2.208 1.018-2.197 2.24.01 1.223 1.01 2.207 2.235 2.202 1.226-.005 2.217-.998 2.217-2.22-.004-.593-.243-1.16-.666-1.577-.423-.416-.994-.648-1.589-.644z" transform="translate(.5 8.5)"/>
                        <path d="M56.925 47h-5.857c-.326-.003-.632-.155-.835-.414-.202-.26-.278-.598-.207-.92L51.61 38.5l2.083.486-1.284 5.838h3.175l-1.313-5.838 2.09-.486 1.613 7.166c.071.324-.006.663-.21.922-.204.26-.512.411-.839.412z" transform="translate(.5 8.5)"/>
                    </g>
                </g>
            </g>
        </g>
    </g>
</svg>
