<svg xmlns="http://www.w3.org/2000/svg" width="65" height="64" viewBox="0 0 65 64">
    <defs>
        <filter id="g5sa0pn6ha">
            <feColorMatrix in="SourceGraphic" values="0 0 0 0 1.000000 0 0 0 0 1.000000 0 0 0 0 1.000000 0 0 0 1.000000 0"/>
        </filter>
    </defs>
    <g fill="none" fill-rule="evenodd">
        <g>
            <g filter="url(#g5sa0pn6ha)" transform="translate(-19 -142) translate(20 142)">
                <g fill="#007C89" fill-rule="nonzero">
                    <path d="M46.956 43H1.015c-.297-.013-.574-.148-.765-.373-.191-.224-.279-.518-.242-.809L5.731 1.892c.073-.51.513-.89 1.034-.892h34.468c.522.001.965.38 1.041.892l1.754 12.22c.047.371-.109.739-.41.965-.3.225-.7.275-1.047.13-.348-.144-.592-.461-.64-.831L40.326 3.074H7.645L2.223 40.926h43.524l-1.433-9.96c-.052-.371.1-.741.397-.971.298-.23.698-.286 1.048-.145.35.14.6.455.652.825l1.579 11.143c.042.297-.047.597-.246.824-.198.226-.486.357-.788.358z" transform="translate(2 11)"/>
                    <path d="M14.253 7.995h18.049v2.069h-18.05V7.995zm-1.938 6.778h21.932v2.069H12.315v-2.069zM11 21.551h24.568v2.069H11V21.55zM31.547 36.5c-4.27 0-7.612-2.124-7.612-4.827s3.35-4.826 7.612-4.826c4.264 0 7.613 2.123 7.613 4.826 0 2.703-3.336 4.827-7.613 4.827zm0-7.585c-3.266 0-5.536 1.455-5.536 2.758 0 1.304 2.277 2.758 5.536 2.758 3.26 0 5.537-1.454 5.537-2.758 0-1.303-2.263-2.772-5.537-2.772v.014zM54.72 10.522c-2.917 0-5.28-2.355-5.28-5.26C49.44 2.354 51.802 0 54.72 0 57.636 0 60 2.355 60 5.261c-.004 2.904-2.366 5.257-5.28 5.261zm0-8.453c-1.77 0-3.205 1.429-3.205 3.192 0 1.763 1.435 3.193 3.205 3.193s3.204-1.43 3.204-3.193C57.92 3.5 56.488 2.072 54.72 2.07z" transform="translate(2 11)"/>
                    <path d="M52.066 31c-2.578-.083-5.113-.7-7.452-1.814-6.732-2.987-6.16-6.208-6.059-6.608 0-.124.58-1.966 1.306-3.752.788-1.938 3.562-2.4 4.767-2.539l3.837-4.352L50.107 7.5 52 8.238l-1.784 4.828-4.638 5.236h-.418c-1.245.069-3.137.558-3.446 1.31-.455 1.129-.855 2.28-1.199 3.449 0 .241.135 2.124 4.901 4.228 5.022 2.228 7.964 1.683 8.678 1.38.518-1.257.968-2.542 1.346-3.85l.067-.22c-.3-1.049-.861-2-1.629-2.759l-.249-.276V21.2c-.222-3.753-.35-6.726-.35-6.753v-.207l1.825-5.132 1.898.69-1.73 4.745c.033.69.141 3.146.316 6.153.673.8 2.31 2.966 1.825 4.504l-.068.22c-1.13 3.574-1.46 4.34-1.804 4.705-.343.366-1.616.876-3.474.876z" transform="translate(2 11)"/>
                    <path d="M54.776 26.432c-.082.01-.166.01-.25 0-.406-.09-9.987-2.313-12.84-6.332-.333-.467-.207-1.104.282-1.422.488-.319 1.154-.198 1.487.27 1.998 2.797 9.046 4.912 11.593 5.498.382.043.711.277.864.615.152.338.105.728-.125 1.024-.23.295-.607.45-.99.408l-.02-.061z" transform="translate(2 11)"/>
                </g>
            </g>
        </g>
    </g>
</svg>
