<svg xmlns="http://www.w3.org/2000/svg" xmlns:xlink="http://www.w3.org/1999/xlink" width="17" height="17" viewBox="0 0 17 17">
    <defs>
        <path id="enhbsmobha" d="M7.646 10.646c-.195.195-.195.512 0 .707.195.197.513.197.708 0l2.999-2.998c.196-.196.196-.513.001-.709h-.001l-3-3c-.195-.196-.512-.194-.707 0-.196.196-.195.513 0 .708L9.793 7.5H.5c-.276 0-.5.223-.5.5s.224.5.5.5h9.293l-2.147 2.146zM8 0C4.894.01 2.071 1.812.754 4.625c-.125.247-.026.547.22.672.247.125.547.026.672-.22l.014-.03C2.813 2.585 5.282 1.009 8 1c3.86 0 7 3.14 7 7s-3.14 7-7 7c-2.718-.009-5.187-1.585-6.34-4.047-.125-.246-.426-.345-.672-.221-.235.12-.337.401-.234.643C2.071 14.188 4.894 15.989 8 16c4.411 0 8-3.589 8-8s-3.589-8-8-8"/>
    </defs>
    <g fill="none" fill-rule="evenodd">
        <g>
            <g>
                <g transform="translate(-210 -1748) translate(93.5 1744) translate(117 4)">
                    <path d="M0 8L0 0 16 0 16 8 16 16 0 16 0 8z"/>
                    <use fill="#007C89" xlink:href="#enhbsmobha"/>
                </g>
            </g>
        </g>
    </g>
</svg>
