<svg xmlns="http://www.w3.org/2000/svg" width="16" height="16" viewBox="0 0 16 16">
    <g fill="none" fill-rule="evenodd">
        <g>
            <g>
                <g>
                    <path d="M0 8L0 0 16 0 16 8 16 16 0 16 0 8z" transform="translate(-44 -1211) translate(44 1207) translate(0 4)"/>
                    <path fill="#007C89" d="M8 15c-3.9 0-7-3.1-7-7s3.1-7 7-7 7 3.1 7 7-3.1 7-7 7M8 0C3.6 0 0 3.6 0 8s3.6 8 8 8 8-3.6 8-8-3.6-8-8-8M4 9h8V7H4v2z" transform="translate(-44 -1211) translate(44 1207) translate(0 4)"/>
                </g>
            </g>
        </g>
    </g>
</svg>
