<svg xmlns="http://www.w3.org/2000/svg" width="64" height="64" viewBox="0 0 64 64">
    <defs>
        <filter id="967avdvrya">
            <feColorMatrix in="SourceGraphic" values="0 0 0 0 1.000000 0 0 0 0 1.000000 0 0 0 0 1.000000 0 0 0 1.000000 0"/>
        </filter>
    </defs>
    <g fill="none" fill-rule="evenodd">
        <g>
            <g>
                <g filter="url(#967avdvrya)" transform="translate(-160 -144) translate(0 96) translate(160 48)">
                    <g fill="#007C89" fill-rule="nonzero">
                        <path d="M62.845 60.5h-2.024c-.638 0-1.155-.517-1.155-1.154 0-.637.517-1.154 1.155-1.154h2.024c.638 0 1.155.517 1.155 1.154 0 .637-.517 1.154-1.155 1.154zm-5.573 0H34.948c-.637 0-1.154-.517-1.154-1.154v-7.224h-4.026v7.224c0 .637-.517 1.154-1.155 1.154H1.155C.517 60.5 0 59.983 0 59.346c0-.637.517-1.154 1.155-1.154H7.12v-29.48l-.994.638c-.836.534-1.899.567-2.767.085-.868-.482-1.401-1.4-1.39-2.393V21.51c-.006-1.058.531-2.046 1.425-2.615L31.16 1.077c.382-.238.865-.238 1.247 0l10.254 6.578V6.224h-.216c-.638 0-1.155-.517-1.155-1.154 0-.637.517-1.154 1.155-1.154h.216V1.154c0-.637.517-1.154 1.154-1.154h8.337c.638 0 1.155.517 1.155 1.154v2.762h.246c.638 0 1.155.517 1.155 1.154 0 .637-.517 1.154-1.155 1.154h-.216v8.262l6.875 4.409c.893.569 1.43 1.557 1.424 2.615v5.578c.012.992-.522 1.911-1.39 2.393-.868.482-1.93.45-2.767-.085l-1.024-.685v29.473h.816c.638 0 1.155.517 1.155 1.154 0 .638-.517 1.154-1.155 1.154v.008zm-21.154-2.308h18.029V27.496c-.008-.074-.008-.15 0-.223L31.784 12.909 9.407 27.273c.008.074.008.149 0 .223v30.688h18.051v-7.216c0-.637.517-1.154 1.155-1.154h6.35c.638 0 1.155.517 1.155 1.154v7.224zM31.784 3.424L4.642 20.84c-.23.144-.368.398-.362.67v5.577c-.007.149.075.287.208.354.119.08.274.08.392 0l26.28-16.88c.383-.237.866-.237 1.248 0l26.288 16.865c.118.08.275.08.393 0 .133-.067.214-.206.208-.354V21.51c.006-.27-.132-.525-.362-.669L31.785 3.424zM44.971 9.14l6.027 3.846V6.224h-6.027V9.14zm0-5.224h6.027V2.308h-6.027v1.608zM31.784 45.098c-.306 0-.6-.122-.816-.338l-9.283-9.34c-2.834-2.853-2.834-7.456 0-10.31 2.767-2.786 7.253-2.857 10.107-.16 2.852-2.697 7.336-2.625 10.1.16 2.834 2.854 2.834 7.457 0 10.31l-9.284 9.34c-.219.216-.515.338-.824.338zM26.82 25.28c-1.317-.004-2.58.523-3.502 1.462-1.934 1.954-1.934 5.1 0 7.055l8.467 8.508 8.468-8.508c1.934-1.955 1.934-5.1 0-7.055-.925-.935-2.187-1.461-3.502-1.461-1.316 0-2.578.526-3.503 1.46l-.647.655c-.22.215-.515.337-.823.338-.308 0-.603-.124-.816-.346l-.647-.654c-.924-.932-2.182-1.455-3.495-1.454z" transform="translate(0 2)"/>
                    </g>
                </g>
            </g>
        </g>
    </g>
</svg>
