<svg xmlns="http://www.w3.org/2000/svg" width="64" height="64" viewBox="0 0 64 64">
    <defs>
        <filter id="beipqew2ma">
            <feColorMatrix in="SourceGraphic" values="0 0 0 0 1.000000 0 0 0 0 1.000000 0 0 0 0 1.000000 0 0 0 1.000000 0"/>
        </filter>
    </defs>
    <g fill="none" fill-rule="evenodd">
        <g>
            <g>
                <g filter="url(#beipqew2ma)" transform="translate(-160 -144) translate(0 96) translate(160 48)">
                    <g fill="#007C89" fill-rule="nonzero" transform="translate(.5 9)">
                        <path d="M46.036 46H16.484c-.544 0-.984-.434-.984-.97V25.97c0-.536.44-.97.984-.97.543 0 .984.434.984.97v13.043h8.676c2.066.002 3.99 1.034 5.116 2.743 1.125-1.71 3.05-2.741 5.115-2.743h8.657V25.97c0-.536.44-.97.984-.97s.984.434.984.97v19.06c0 .528-.428.96-.964.97zm-13.674-1.94h12.67v-3.106h-8.657c-1.901.004-3.556 1.284-4.013 3.105zm-14.875 0h12.671c-.457-1.822-2.112-3.102-4.014-3.106h-8.657v3.105z"/>
                        <path d="M31.47 46c-.536 0-.97-.437-.97-.976v-17.47c.004-3.342 2.693-6.05 6.01-6.054h9.52c.536 0 .97.437.97.976v17.445c0 .539-.434.976-.97.976h-9.52c-2.247.004-4.068 1.837-4.071 4.1.007.264-.092.52-.275.708-.182.189-.433.295-.695.295zm5.04-22.56c-1.081.001-2.118.436-2.881 1.207-.764.772-1.192 1.817-1.19 2.906v13.018c1.107-1.033 2.562-1.607 4.072-1.607h8.53V23.44h-8.53z"/>
                        <path d="M31.53 46c-.537 0-.971-.437-.971-.976-.004-2.262-1.827-4.095-4.077-4.098h-9.53c-.26-.005-.505-.114-.683-.302-.18-.188-.276-.44-.269-.7V22.476c0-.54.435-.976.97-.976h9.512c1.598.002 3.13.641 4.258 1.779 1.129 1.137 1.762 2.678 1.76 4.284v17.461c0 .54-.435.976-.97.976zM17.94 38.974h8.541c1.511-.002 2.967.57 4.077 1.6v-13.01c-.004-2.263-1.827-4.096-4.077-4.1h-8.54v15.51z"/>
                        <path d="M55.51 28h-.117c-.54 0-.977-.438-.977-.978v-2.26c0-12.528-10.15-22.683-22.673-22.683-12.521 0-22.672 10.155-22.672 22.682v2.261c0 .54-.437.978-.977.978h-.117c-.54 0-.977-.438-.977-.978v-2.26C7 11.085 18.081 0 31.75 0S56.5 11.086 56.5 24.761v2.261c0 .262-.105.513-.29.696-.187.184-.439.285-.7.282z"/>
                        <path d="M55.098 46h-4.602c-.55 0-.996-.437-.996-.976V26.976c0-.539.446-.976.996-.976h4.602c4.361.007 7.895 3.47 7.902 7.745v4.51c-.007 4.275-3.54 7.738-7.902 7.745zm-3.606-1.952h3.606c3.262-.004 5.906-2.595 5.91-5.793v-4.51c-.004-3.198-2.648-5.789-5.91-5.793h-3.586l-.02 16.096z"/>
                        <rect width="2" height="19.5" x="54.5" y="26.5" rx="1"/>
                        <path d="M12.504 46H7.902C3.541 45.993.007 42.53 0 38.255v-4.51C.007 29.47 3.54 26.007 7.902 26h4.602c.55 0 .996.437.996.976v18.048c0 .539-.446.976-.996.976zM7.902 27.952c-3.262.004-5.906 2.595-5.91 5.793v4.51c.004 3.198 2.648 5.789 5.91 5.793h3.586V27.952H7.902z"/>
                        <rect width="2" height="19.5" x="6.5" y="26.5" rx="1"/>
                    </g>
                </g>
            </g>
        </g>
    </g>
</svg>
