<svg xmlns="http://www.w3.org/2000/svg" width="16" height="16" viewBox="0 0 16 16">
    <g fill="none" fill-rule="evenodd">
        <g>
            <g>
                <g>
                    <g>
                        <path d="M0 8L0 0 16 0 16 8 16 16 0 16 0 8z" transform="translate(-534 -118) translate(0 96) translate(534 16) translate(0 6)"/>
                        <path fill="#FFF" d="M8.038 9.524c2.157-.013 4.292.43 6.266 1.3.839.381 1.377 1.219 1.376 2.14v2.447c.003.155-.056.304-.164.414-.108.111-.255.174-.41.175-.316 0-.573-.257-.573-.574v-2.48c.002-.47-.272-.898-.7-1.094-1.827-.797-3.801-1.2-5.795-1.181-2.015-.015-4.012.389-5.864 1.185-.43.195-.707.624-.707 1.097v2.458c0 .317-.257.574-.574.574-.316 0-.573-.257-.573-.574v-2.458c.006-.921.55-1.754 1.392-2.129 1.995-.868 4.15-1.31 6.326-1.3zm2.077-8.94c1.303.777 2.075 2.206 2.01 3.722 0 3.001-1.736 5.18-4.125 5.18-2.39 0-4.125-2.179-4.125-5.18-.065-1.516.706-2.945 2.01-3.723 1.303-.777 2.927-.777 4.23 0zM8 1.197c-1.685.044-3.016 1.443-2.978 3.127 0 2.336 1.25 4.033 2.978 4.033 1.728 0 2.978-1.716 2.978-4.033C11.016 2.641 9.685 1.242 8 1.198z" transform="translate(-534 -118) translate(0 96) translate(534 16) translate(0 6)"/>
                    </g>
                </g>
            </g>
        </g>
    </g>
</svg>
