<svg xmlns="http://www.w3.org/2000/svg" width="16" height="16" viewBox="0 0 16 16">
    <g fill="none" fill-rule="evenodd">
        <g>
            <g>
                <g>
                    <g>
                        <g>
                            <path d="M0 8L0 0 16 0 16 8 16 16 0 16 0 8z" transform="translate(-567 -452) translate(0 96) translate(160 48) translate(242 304) translate(165 4)"/>
                            <path fill="#FFF" d="M15.5 9c.276 0 .5.224.5.5V15c0 .553-.447 1-1 1H1c-.552 0-1-.447-1-1V9.5c0-.276.224-.5.5-.5s.5.224.5.5V15h14V9.5c0-.276.224-.5.5-.5zM8 0c.276 0 .5.223.5.5v10.805l2.704-2.661c.193-.175.488-.173.678.005.2.188.212.505.023.707l-3.555 3.5c-.194.191-.506.191-.7 0h-.001l-3.554-3.5-.03-.029c-.187-.201-.177-.518.024-.707.202-.188.519-.178.707.024L7.5 11.305V.5c0-.277.224-.5.5-.5z" transform="translate(-567 -452) translate(0 96) translate(160 48) translate(242 304) translate(165 4)"/>
                        </g>
                    </g>
                </g>
            </g>
        </g>
    </g>
</svg>
