<svg xmlns="http://www.w3.org/2000/svg" width="32" height="32" viewBox="0 0 32 32">
    <g fill="none" fill-rule="evenodd">
        <g>
            <g>
                <g>
                    <path d="M0 16L0 0 32 0 32 16 32 32 0 32z" transform="translate(-1248 -556) translate(160 511) translate(1088 45)"/>
                    <path fill="#007C89" d="M31.3 18.3c.387 0 .7.313.7.7v11.6c0 .773-.627 1.4-1.4 1.4H.7c-.386 0-.7-.313-.7-.7V19c0-.387.314-.7.7-.7.387 0 .7.313.7.7v11.6h29.2V19c0-.387.313-.7.7-.7zM16.001 0c.386 0 .7.314.7.7v23.412l5.626-5.607c.017-.02.034-.036.054-.054.288-.258.73-.232.988.056.258.288.234.73-.054.988l-6.82 6.8h-.002c-.273.273-.715.272-.987 0l-6.82-6.8c-.275-.271-.276-.715-.003-.99.273-.273.716-.273.99-.001l5.627 5.609V.699c0-.386.314-.7.701-.7z" transform="translate(-1248 -556) translate(160 511) translate(1088 45)"/>
                </g>
            </g>
        </g>
    </g>
</svg>
