<svg xmlns="http://www.w3.org/2000/svg" width="64" height="64" viewBox="0 0 64 64">
    <g fill="none" fill-rule="evenodd">
        <g fill="#007C89" fill-rule="nonzero">
            <g>
                <g>
                    <path d="M42.301 63H20.7c-.7 0-1.268-.568-1.268-1.268V43.57H1.268c-.7 0-1.268-.567-1.268-1.268V20.7c0-.7.568-1.268 1.268-1.268H19.43V1.268c0-.7.567-1.268 1.268-1.268H42.3c.7 0 1.268.568 1.268 1.268V19.43h18.163c.7 0 1.268.567 1.268 1.268V42.3c0 .7-.568 1.268-1.268 1.268H43.57v18.163c0 .7-.567 1.268-1.268 1.268zm-20.335-2.536h19.068V42.301c.004-.698.57-1.263 1.267-1.267h18.163V21.966H42.301c-.7 0-1.267-.567-1.267-1.267V2.536H21.966v18.163c0 .7-.567 1.267-1.267 1.267H2.536v19.068h18.163c.698.004 1.263.57 1.267 1.267v18.163z" transform="translate(-160 -144) translate(160 144) translate(.5 .5)"/>
                </g>
            </g>
        </g>
    </g>
</svg>
