<svg xmlns="http://www.w3.org/2000/svg" width="64" height="64" viewBox="0 0 64 64">
    <g fill="none" fill-rule="evenodd">
        <g>
            <g>
                <g>
                    <path d="M0 0H64V64H0z" transform="translate(-159 -144) translate(0 96) translate(159 48)"/>
                    <path fill="#FFF" fill-rule="nonzero" d="M12.555 62c-.206.003-.409-.048-.589-.148-.434-.22-.708-.666-.709-1.154v-8.954h-1.254c-2.382.007-4.67-.936-6.358-2.622-1.689-1.686-2.64-3.976-2.645-6.367V11.99c.005-2.39.956-4.68 2.645-6.366C5.333 3.937 7.62 2.993 10.003 3h45.994c2.382-.007 4.67.937 6.358 2.623 1.689 1.686 2.64 3.976 2.645 6.366v30.766c-.005 2.39-.956 4.68-2.645 6.367-1.688 1.686-3.976 2.63-6.358 2.622H27.283L13.307 61.757c-.218.16-.482.245-.752.243zM10.003 5.603c-1.695-.01-3.324.66-4.526 1.858-1.203 1.198-1.88 2.827-1.882 4.528v30.766c.004 3.529 2.857 6.386 6.374 6.386h2.551c.716 0 1.297.583 1.297 1.302v7.722l12.264-8.78c.22-.158.483-.243.753-.244h29.163c1.695.01 3.324-.659 4.526-1.857 1.203-1.199 1.88-2.828 1.882-4.529V11.99c-.002-1.7-.68-3.33-1.882-4.528-1.202-1.199-2.831-1.867-4.526-1.858H10.003z" transform="translate(-159 -144) translate(0 96) translate(159 48)"/>
                    <path fill="#FFF" fill-rule="nonzero" d="M34 47c-.729 0-1.32-.586-1.32-1.309v-3.183c-4.955-.654-8.662-4.837-8.68-9.794 0-.723.59-1.309 1.32-1.309.728 0 1.319.586 1.319 1.309-.005 1.938.769 3.798 2.15 5.17 1.381 1.37 3.256 2.14 5.211 2.138 3.193 0 6.64-1.97 6.64-5.154 0-3.646-2.7-4.43-7.115-5.408-3.843-.872-8.628-1.91-8.628-7.203.085-4.378 3.402-8.028 7.784-8.565v-3.384C32.68 9.586 33.27 9 34 9s1.32.586 1.32 1.308v3.332c4.963.651 8.675 4.846 8.68 9.811 0 .723-.59 1.309-1.32 1.309-.728 0-1.319-.586-1.319-1.309-.002-1.933-.779-3.787-2.16-5.153-1.38-1.365-3.25-2.131-5.201-2.129-3.449-.05-6.313 2.627-6.464 6.044 0 3.052 2.374 3.724 6.57 4.648 4.195.925 9.173 2.033 9.173 7.928 0 4.361-3.914 7.17-7.916 7.684v3.218c0 .355-.145.694-.402.94-.257.248-.604.38-.961.368z" transform="translate(-159 -144) translate(0 96) translate(159 48)"/>
                </g>
            </g>
        </g>
    </g>
</svg>
