<svg xmlns="http://www.w3.org/2000/svg" width="17" height="17" viewBox="0 0 17 17">
    <g fill="none" fill-rule="evenodd">
        <g>
            <g>
                <g>
                    <path d="M0 8L0 0 16 0 16 8 16 16 0 16 0 8z" transform="translate(-92 -637) translate(92.5 633) translate(0 4)"/>
                    <path fill="#007C89" d="M4 7.838c0 .128.049.256.146.354l7.312 7.317c.198.192.514.186.706-.013.187-.193.187-.5 0-.694L5.207 7.838 12.165.86c.199-.192.204-.509.011-.707-.192-.198-.509-.204-.707-.01l-.011.011-7.312 7.332C4.053 7.58 4 7.706 4 7.838" transform="translate(-92 -637) translate(92.5 633) translate(0 4)"/>
                </g>
            </g>
        </g>
    </g>
</svg>
