<svg xmlns="http://www.w3.org/2000/svg" width="24" height="24" viewBox="0 0 24 24">
    <g fill="none" fill-rule="evenodd">
        <g fill="#0A7812">
            <g>
                <g>
                    <path d="M12 0c6.6 0 12 5.4 12 12s-5.4 12-12 12S0 18.6 0 12 5.4 0 12 0zm4.993 7.734l-7.091 6.967-2.873-2.822c-.27-.265-.808-.265-1.077 0-.27.264-.27.793 0 1.058l3.411 3.35c.18.177.36.177.539.177.18 0 .359-.088.538-.176l7.63-7.496c.18-.176.18-.352.18-.529 0-.176-.09-.353-.18-.529-.269-.264-.807-.264-1.077 0z" transform="translate(-464 -477) translate(448 457) translate(16 20)"/>
                </g>
            </g>
        </g>
    </g>
</svg>
