<svg xmlns="http://www.w3.org/2000/svg" width="64" height="64" viewBox="0 0 64 64">
    <g fill="none" fill-rule="evenodd">
        <g fill="#007C89" fill-rule="nonzero">
            <g>
                <g>
                    <path d="M5.461 64h-.056c-.662-.03-1.174-.589-1.147-1.25l.305-6.807-4.114-3.156C.164 52.56 0 52.215 0 51.85V23.73c0-.105.014-.21.04-.312V16.21c.1-2.873 2.495-5.132 5.373-5.07 1.147.002 2.267.354 3.208 1.01v-2.066c.091-2.89 2.503-5.163 5.396-5.086 1.058-.004 2.094.29 2.991.849v-.801C17.198 2.206 19.56 0 22.41 0c2.85 0 5.211 2.206 5.401 5.046v.8c.897-.558 1.934-.852 2.991-.848 2.894-.077 5.305 2.196 5.397 5.086v13.47c.033.104.05.212.048.321v5.166c.004.064.004.128 0 .192v5.062l2.093-.801c1.601-1.653 3.106-3.397 4.507-5.222 1.53-2.422 4.642-3.303 7.217-2.042 1.3.612 2.286 1.738 2.719 3.107.4 1.287.246 2.683-.425 3.852l-.097.137-6.27 8.097-.097.112L31.812 55.87l.264 6.319c.028.662-.484 1.223-1.146 1.257-.321.022-.637-.088-.875-.304-.237-.216-.376-.52-.384-.84l-.305-6.849c-.016-.332.106-.657.337-.897l14.402-14.656 6.143-7.937c.31-.583.377-1.266.184-1.898-.24-.731-.77-1.331-1.468-1.658-1.471-.73-3.258-.233-4.137 1.153-.027.05-.056.098-.089.145-.048.056-4.362 5.534-5.412 5.982-.29.12-2.719 1.01-3.665 1.354-.071.04-.147.072-.225.096-4.098 1.238-7.504 4.11-9.414 7.937-.29.597-1.01.846-1.608.556-.598-.29-.847-1.008-.557-1.605 2.044-4.116 5.596-7.288 9.92-8.858v-7.152c-.009-.075-.009-.15 0-.225v-3.628c-.033-.098-.05-.2-.049-.304V10.084c-.159-1.531-1.45-2.694-2.99-2.694-1.542 0-2.833 1.163-2.992 2.694v15.112c0 .664-.539 1.202-1.203 1.202s-1.203-.538-1.203-1.202V5.03c-.176-1.519-1.464-2.665-2.995-2.665-1.53 0-2.819 1.146-2.995 2.665v4.805c.008.072.008.145 0 .216V26.07c0 .664-.539 1.202-1.203 1.202s-1.203-.538-1.203-1.202V10.34c-.008-.074-.008-.149 0-.223-.09-1.563-1.425-2.76-2.99-2.683-1.566-.078-2.901 1.12-2.992 2.683v18.733c.016.663-.51 1.213-1.175 1.229-.664.015-1.215-.51-1.23-1.173l-.225-5.086v-7.625c-.11-1.519-1.394-2.684-2.92-2.65-1.557-.083-2.895 1.096-3.006 2.65v7.537c-.002.105-.015.21-.04.312v27.23L6.52 54.39c.312.24.489.616.473 1.01l-.33 7.432C6.647 63.48 6.114 64 5.462 64z" transform="translate(-160 -144) translate(160 144) translate(5.5)"/>
                </g>
            </g>
        </g>
    </g>
</svg>
