<svg xmlns="http://www.w3.org/2000/svg" width="64" height="64" viewBox="0 0 64 64">
    <defs>
        <filter id="ag5h0dmjfa">
            <feColorMatrix in="SourceGraphic" values="0 0 0 0 1.000000 0 0 0 0 1.000000 0 0 0 0 1.000000 0 0 0 1.000000 0"/>
        </filter>
    </defs>
    <g fill="none" fill-rule="evenodd">
        <g>
            <g>
                <g filter="url(#ag5h0dmjfa)" transform="translate(-160 -144) translate(0 96) translate(160 48)">
                    <g fill="#007C89" fill-rule="nonzero">
                        <path d="M54.387 32.782H19.556L7.85 2.246H0V0h9.39l11.704 30.536H52.87l7.82-19.569H18.01V8.721H64l-9.613 24.06zm2.323 10.974H19.152c-1.063.001-2.054-.537-2.633-1.43-.58-.894-.668-2.02-.235-2.994l1.822-4.117 2.047.943-1.822 4.125c-.128.277-.102.6.067.853.162.257.444.413.747.412H56.71v2.208zM22.357 54.35c-2.443 0-4.422-1.984-4.422-4.432 0-2.447 1.98-4.431 4.422-4.431 2.442 0 4.422 1.984 4.422 4.431-.004 2.446-1.982 4.428-4.422 4.432zm0-6.618c-1.205 0-2.181.98-2.181 2.186 0 1.208.976 2.186 2.18 2.186 1.205 0 2.182-.978 2.182-2.186 0-.58-.23-1.135-.639-1.545-.41-.41-.964-.64-1.542-.64zm29.101 6.618c-2.442 0-4.422-1.984-4.422-4.432 0-2.447 1.98-4.431 4.422-4.431 2.443 0 4.422 1.984 4.422 4.431-.004 2.446-1.981 4.428-4.422 4.432zm0-6.618c-1.204 0-2.18.98-2.18 2.186 0 1.208.976 2.186 2.18 2.186 1.205 0 2.182-.978 2.182-2.186 0-1.207-.977-2.186-2.182-2.186z" transform="translate(0 5.5)"/>
                        <path d="M24.381 13.113l2.216-.415 2.929 15.839-2.217.415-2.928-15.839zm20.3 15.173L47.56 12.7l2.217.415-2.882 15.586-2.215-.415zm-8.656-15.391h2.253v14.923h-2.253V12.895z" transform="translate(0 5.5)"/>
                    </g>
                </g>
            </g>
        </g>
    </g>
</svg>
