<svg xmlns="http://www.w3.org/2000/svg" xmlns:xlink="http://www.w3.org/1999/xlink" width="32" height="32" viewBox="0 0 32 32">
    <defs>
        <filter id="9q4613846a">
            <feColorMatrix in="SourceGraphic" values="0 0 0 0 0.000000 0 0 0 0 0.486275 0 0 0 0 0.537255 0 0 0 1.000000 0"/>
        </filter>
        <path id="ahqyj6ds0b" d="M0 0.01L31.99 0.01 31.99 32.063 0 32.063z"/>
    </defs>
    <g fill="none" fill-rule="evenodd">
        <g>
            <g filter="url(#9q4613846a)" transform="translate(-1080 -288) translate(1080 288)">
                <g>
                    <g>
                        <mask id="5oxuaitkqc" fill="#fff">
                            <use xlink:href="#ahqyj6ds0b"/>
                        </mask>
                        <path fill="#000" d="M15.995.01C11.651.01 11.106.03 9.4.107 7.698.184 6.535.455 5.518.852c-1.052.409-1.944.957-2.833 1.848-.89.891-1.437 1.785-1.845 2.839-.396 1.02-.666 2.184-.744 3.89C.018 11.139 0 11.684 0 16.037c0 4.352.018 4.898.096 6.608.078 1.705.348 2.87.744 3.89.408 1.054.955 1.947 1.845 2.838.889.891 1.78 1.44 2.833 1.849 1.017.396 2.18.667 3.882.745 1.706.078 2.251.096 6.595.096 4.344 0 4.889-.018 6.595-.096 1.702-.078 2.865-.349 3.882-.745 1.052-.41 1.944-.958 2.833-1.849.89-.89 1.436-1.784 1.845-2.838.396-1.02.666-2.185.744-3.89.078-1.71.096-2.256.096-6.608 0-4.353-.018-4.899-.096-6.608-.078-1.706-.348-2.87-.744-3.89-.409-1.054-.955-1.948-1.845-2.839-.889-.891-1.78-1.439-2.833-1.848-1.017-.397-2.18-.668-3.882-.745C20.884.029 20.339.01 15.995.01m0 2.888c4.27 0 4.777.016 6.463.093 1.56.072 2.407.333 2.97.552.747.29 1.28.638 1.84 1.199.56.56.906 1.095 1.196 1.843.219.564.48 1.413.55 2.976.078 1.69.094 2.196.094 6.476 0 4.279-.016 4.786-.093 6.476-.071 1.562-.332 2.411-.551 2.976-.29.748-.637 1.282-1.197 1.843-.56.56-1.092.908-1.839 1.198-.563.22-1.41.481-2.97.552-1.686.077-2.192.094-6.463.094s-4.777-.017-6.463-.094c-1.56-.071-2.407-.332-2.97-.552-.747-.29-1.28-.638-1.84-1.198-.56-.561-.906-1.095-1.196-1.843-.219-.565-.48-1.414-.55-2.976-.078-1.69-.094-2.197-.094-6.476 0-4.28.016-4.786.093-6.476.071-1.563.332-2.412.55-2.976.291-.748.638-1.282 1.197-1.843.56-.56 1.093-.908 1.84-1.199.563-.22 1.41-.48 2.97-.552 1.686-.077 2.192-.093 6.463-.093" mask="url(#5oxuaitkqc)"/>
                    </g>
                    <path fill="#000" d="M16 21.277c-2.868 0-5.193-2.334-5.193-5.214 0-2.879 2.325-5.213 5.193-5.213 2.868 0 5.193 2.334 5.193 5.213 0 2.88-2.325 5.214-5.193 5.214m0-13.245c-4.418 0-8 3.596-8 8.031 0 4.436 3.582 8.032 8 8.032s8-3.596 8-8.032c0-4.435-3.582-8.031-8-8.031M26.667 7.362c0 1.11-.896 2.008-2 2.008-1.105 0-2-.899-2-2.008s.895-2.008 2-2.008c1.104 0 2 .9 2 2.008"/>
                </g>
            </g>
        </g>
    </g>
</svg>
