<svg xmlns="http://www.w3.org/2000/svg" width="32" height="32" viewBox="0 0 32 32">
    <g fill="none" fill-rule="evenodd">
        <g fill="#FFF">
            <g>
                <path d="M29.125 10H2.875C2.392 10 2 9.552 2 9s.392-1 .875-1h26.25c.483 0 .875.448.875 1s-.392 1-.875 1M29.125 16H2.875C2.392 16 2 15.552 2 15s.392-1 .875-1h26.25c.483 0 .875.448.875 1s-.392 1-.875 1M29.125 22H2.875C2.392 22 2 21.552 2 21s.392-1 .875-1h26.25c.483 0 .875.448.875 1s-.392 1-.875 1" transform="translate(-270 -26) translate(270 26)"/>
            </g>
        </g>
    </g>
</svg>
