<svg xmlns="http://www.w3.org/2000/svg" width="16" height="16" viewBox="0 0 16 16">
    <g fill="none" fill-rule="evenodd">
        <g>
            <g>
                <g>
                    <path d="M0 8L0 0 16 0 16 8 16 16 0 16 0 8z" transform="translate(-213 -1501) translate(20 1497) translate(193 4)"/>
                    <path fill="#007C89" d="M8.75 11.81c0 .415-.336.75-.75.75s-.75-.335-.75-.75c0-.414.336-.75.75-.75s.75.336.75.75M8 9.78c-.276 0-.5-.224-.5-.5V7.873c0-.277.224-.5.5-.5.732 0 1.399-.637 1.399-1.336 0-.647-.412-1.335-1.176-1.335-.661 0-1.208.372-1.33.904-.061.27-.329.44-.598.377-.27-.061-.438-.33-.377-.6.226-.99 1.174-1.681 2.305-1.681 1.22 0 2.176 1.026 2.176 2.335 0 1.079-.842 2.042-1.899 2.28v.962c0 .276-.224.5-.5.5M8 1c3.86 0 7 3.14 7 7s-3.14 7-7 7-7-3.14-7-7 3.14-7 7-7m0-1C3.582 0 0 3.582 0 8s3.582 8 8 8 8-3.582 8-8-3.582-8-8-8" transform="translate(-213 -1501) translate(20 1497) translate(193 4)"/>
                </g>
            </g>
        </g>
    </g>
</svg>
