<svg xmlns="http://www.w3.org/2000/svg" width="16" height="16" viewBox="0 0 16 16">
    <g fill="none" fill-rule="evenodd">
        <g>
            <g>
                <path d="M0 8L0 0 16 0 16 8 16 16 0 16 0 8z" transform="translate(-768 -533) translate(768 533)"/>
                <path fill="#007C89" d="M5.135 13.682c-.133 0-.26-.053-.353-.147L.147 8.9c-.196-.195-.195-.512 0-.707.195-.195.511-.195.707 0l4.28 4.283L15.142 2.47c.192-.2.507-.205.705-.013.2.19.205.508.014.707l-.013.012-10.359 10.36c-.094.094-.22.147-.353.147z" transform="translate(-768 -533) translate(768 533)"/>
            </g>
        </g>
    </g>
</svg>
