<svg xmlns="http://www.w3.org/2000/svg" xmlns:xlink="http://www.w3.org/1999/xlink" width="32" height="32" viewBox="0 0 32 32">
    <defs>
        <filter id="e18q1vckxa">
            <feColorMatrix in="SourceGraphic" values="0 0 0 0 0.000000 0 0 0 0 0.486275 0 0 0 0 0.537255 0 0 0 1.000000 0"/>
        </filter>
        <path id="fr8i6co9vb" d="M0 0L32 0 32 26 0 26z"/>
    </defs>
    <g fill="none" fill-rule="evenodd">
        <g>
            <g filter="url(#e18q1vckxa)" transform="translate(-1192 -288) translate(1192 288)">
                <g transform="translate(0 3)">
                    <mask id="1ly0pw0sjc" fill="#fff">
                        <use xlink:href="#fr8i6co9vb"/>
                    </mask>
                    <path fill="#4C4D4F" d="M10.064 26c10.246.071 18.608-8.178 18.68-18.424V7.32c0-.284-.006-.566-.018-.848 1.284-.93 2.393-2.082 3.274-3.4-1.198.531-2.469.88-3.77 1.034 1.37-.82 2.397-2.11 2.888-3.634-1.29.768-2.699 1.31-4.17 1.602C25.706.748 23.972-.002 22.155 0c-3.625 0-6.564 2.94-6.565 6.566-.002.502.056 1.005.17 1.496C10.48 7.798 5.561 5.303 2.227 1.2c-.584 1.002-.892 2.14-.889 3.3-.004 2.196 1.093 4.248 2.92 5.467-1.041-.032-2.061-.313-2.972-.821v.084c0 3.125 2.203 5.816 5.267 6.436-.566.153-1.148.232-1.735.232-.413-.002-.827-.04-1.233-.119.86 2.675 3.324 4.507 6.132 4.56-2.326 1.821-5.196 2.808-8.15 2.801-.525.002-1.048-.028-1.568-.089 3.002 1.928 6.495 2.952 10.064 2.95" mask="url(#1ly0pw0sjc)"/>
                </g>
            </g>
        </g>
    </g>
</svg>
