<svg xmlns="http://www.w3.org/2000/svg" width="32" height="32" viewBox="0 0 32 32">
    <g fill="none" fill-rule="evenodd">
        <g>
            <g>
                <path d="M0 16L0 0 32 0 32 16 32 32 0 32z" transform="translate(-1232 -32) translate(1232 32)"/>
                <path fill="#FFF" d="M16.076 19.049c4.314-.027 8.584.858 12.531 2.599 1.679.763 2.756 2.438 2.753 4.281v4.894c.006.308-.112.607-.328.828-.215.221-.51.347-.82.349-.633 0-1.146-.513-1.146-1.147v-4.962c.004-.94-.544-1.796-1.4-2.186-3.653-1.596-7.603-2.4-11.59-2.363-4.031-.03-8.025.777-11.728 2.37-.861.39-1.415 1.249-1.414 2.195v4.916c0 .633-.514 1.146-1.147 1.146-.634 0-1.147-.513-1.147-1.146v-4.916c.011-1.843 1.1-3.509 2.783-4.259 3.991-1.736 8.3-2.62 12.653-2.6zm4.155-17.883c2.606 1.555 4.149 4.414 4.018 7.446 0 6.002-3.47 10.36-8.25 10.36-4.778 0-8.249-4.358-8.249-10.36-.13-3.032 1.413-5.89 4.02-7.446 2.605-1.555 5.854-1.555 8.46 0zM16 2.396c-3.37.088-6.033 2.885-5.956 6.255 0 4.671 2.5 8.066 5.956 8.066 3.456 0 5.956-3.433 5.956-8.066.077-3.37-2.587-6.167-5.956-6.254z" transform="translate(-1232 -32) translate(1232 32)"/>
            </g>
        </g>
    </g>
</svg>
